<svg xmlns="http://www.w3.org/2000/svg" viewBox="0 0 122.45 36.64"><g data-name="Layer 2"><path d="M0 27.82v-4.1a16.42 16.42 0 006 1.14c2.24 0 3.11-.69 3.11-1.89s-.51-1.52-2.45-1.91l-1.5-.3c-3.2-.6-5.14-2-5.14-6.22 0-3.8 2.36-6.28 7.45-6.28a12.86 12.86 0 016 1.05v4A16.12 16.12 0 008 12.39c-1.83 0-2.76.56-2.76 1.73s.6 1.47 2.37 1.82l1.49.27c3.56.69 5.5 2.1 5.5 6.16 0 4.31-2.75 6.64-7.95 6.64A14.81 14.81 0 010 27.82zm15.16-3.23c0-3.26 2.24-4.34 5.56-4.79l2.81-.42v-.62c0-1.65-.77-2-3-2a18.78 18.78 0 00-4.06.45v-3.33a16.55 16.55 0 016-.9c3.79 0 6.13 1.23 6.13 4.73v11h-4.2l-.4-1.22h-.15c-.66.93-2 1.46-3.95 1.46-2.77.05-4.74-1.4-4.74-4.36zm8.37.54v-3l-1.79.18c-1.2.11-1.71.59-1.71 1.73 0 1.32.69 1.7 1.65 1.7a2.62 2.62 0 001.85-.61zm5.87-.63V13.28h5.05v10.14c0 1.23.54 1.68 1.89 1.68a6.05 6.05 0 002.33-.54V13.28h5.06v15.41h-4.49l-.33-1.35h-.15A7.11 7.11 0 0134.1 29c-2.94 0-4.7-1.36-4.7-4.5zm15.13-3.14V21c0-5.8 2.93-8 7-8a6.65 6.65 0 013.23.66V7.27h5.06v21.39h-4.37l-.33-1.17h-.18A5.91 5.91 0 0150.63 29c-3.23 0-6.1-2.2-6.1-7.64zm10.23 3.2V17a4 4 0 00-2.12-.54c-1.8 0-2.87 1-2.87 4.25v.45c0 3.29 1.1 4.1 2.81 4.1a3.62 3.62 0 002.18-.7zm5.77.03c0-3.26 2.25-4.34 5.57-4.79l2.81-.42v-.62c0-1.65-.78-2-3-2a18.88 18.88 0 00-4.07.45v-3.33a16.62 16.62 0 016-.9c3.8 0 6.13 1.23 6.13 4.73v11h-4.19l-.36-1.2h-.15c-.66.93-2 1.46-4 1.46-2.76.03-4.74-1.42-4.74-4.38zm8.38.54v-3l-1.8.18c-1.19.11-1.7.59-1.7 1.73 0 1.32.69 1.7 1.64 1.7a2.65 2.65 0 001.86-.61zm4.73-11.88H79l3 9.66 3-9.66h4.79l-5.42 15.44h-5.29zm15.04 7.87v-.39c0-4.76 3-7.75 7.57-7.75 5.17 0 7.11 2.91 7.11 8v1.32h-9.51c.3 2.42 1.68 3.11 4.28 3.11a12.36 12.36 0 004.6-.93v3.14A11.53 11.53 0 0196.81 29c-5.47 0-8.13-2.8-8.13-7.88zm5.14-1.74h4.67c0-2.24-.75-3.05-2.24-3.05-1.14 0-2.25.67-2.43 3.05zm10.5-10.58h5.18v3.31h-5.18zm0 4.45h5.12v15.44h-5.12zm6.07 14.69v-3.41a11.77 11.77 0 004.58.9c1.85 0 2.6-.45 2.6-1.29s-.45-1-1.76-1.17l-1.41-.21c-2.63-.39-4.1-1.82-4.1-4.81s2-5 6.32-5a11.94 11.94 0 014.87.81v3.38a13.94 13.94 0 00-4.22-.69c-1.52 0-2.24.39-2.24 1.2s.54 1 1.76 1.2l1.44.18c3.11.41 4.22 2.09 4.22 4.75 0 3.38-2.13 5.14-6.73 5.14a12.68 12.68 0 01-5.33-.98zM72.38 10.19l-4.69 2.18-1.68-2.23 4.28-2.76 2.09 2.81zM21.3 4.81a2.36 2.36 0 001.34-2.26c0-1.74-1-2.55-3.11-2.55h-2.92v10.15H20c2.05 0 3.18-1 3.18-2.86a2.36 2.36 0 00-1.88-2.48zm-1.73-.26h-2.21V.72h2.17c1.7 0 2.36.53 2.36 1.87S21 4.55 19.57 4.55zm-2.21.71h2.29c1.89 0 2.73.62 2.73 2s-.77 2.17-2.44 2.17h-2.58zm9.18-2.64a5.37 5.37 0 00-2 .37h-.11v.71l.23-.07a5.72 5.72 0 011.81-.32c1.24 0 1.7.42 1.7 1.54v1L26.05 6c-1.53.17-2.3.92-2.3 2.2a2.09 2.09 0 002.38 2.06 3.61 3.61 0 002-.57v.47h.72V4.78c.05-1.44-.74-2.16-2.31-2.16zm1.59 3.85V9a2.88 2.88 0 01-1.94.66c-1.06 0-1.69-.53-1.69-1.43s.5-1.42 1.68-1.53zm2.1-5.95h.75v.91h-.75zm.01 2.19h.74v7.44h-.74zm5.19-.06a3.25 3.25 0 00-2.06.77v-.7h-.73v7.46h.75V4.24a2.81 2.81 0 012-.9 1.8 1.8 0 01.37.05l.23.06v-.71h-.13a1.71 1.71 0 00-.43-.09zm4.73.8v-.71L40 2.7a1.71 1.71 0 00-.46-.05 3.23 3.23 0 00-2.06.77v-.7h-.74v7.46h.75V4.24a2.83 2.83 0 012-.9 2 2 0 01.37.05zm2.99-.83c-2 0-3.26 1.47-3.26 3.76v.16c0 2.34 1.22 3.74 3.26 3.74s3.27-1.49 3.27-3.79v-.14c0-2.35-1.22-3.73-3.27-3.73zm0 7c-1.64 0-2.54-1.07-2.54-3v-.2c0-1.93 1-3.08 2.54-3.08s2.55 1 2.55 3v.19c0 1.92-.95 3.07-2.55 3.07zm6.65-3.53l-.86-.25c-1-.3-1.24-.61-1.24-1.36s.58-1.17 1.63-1.17a4.26 4.26 0 011.78.4l.26.12v-.71l-.09-.05a3.92 3.92 0 00-2-.45c-1.45 0-2.32.7-2.32 1.87s.69 1.72 1.72 2l.86.26c1.13.32 1.43.63 1.43 1.46s-.59 1.37-1.81 1.37a4.21 4.21 0 01-2.07-.49L46.84 9v.7l.1.05a4.82 4.82 0 002.27.53c2.27 0 2.52-1.45 2.52-2.07 0-1.3-.68-1.75-1.93-2.12z" fill="#a3c84d"/><path d="M41.91 32.89h1l.4 1.68.44-1.68h.72l.45 1.68.39-1.68h.82l-.76 2.9h-.9l-.45-1.63-.46 1.63h-.9zm4.41 0h1l.39 1.68.45-1.68h.71l.46 1.68.39-1.68h.83l-.77 2.9h-.89l-.45-1.63-.44 1.63h-.9zm4.4 0h1l.39 1.68.44-1.68h.72l.45 1.68.38-1.68h.9l-.76 2.9h-.9l-.45-1.63-.46 1.63h-.9zm4.5 2.2h.92v.85h-.92zm1.36.56v-3.89h1v1.34a1.26 1.26 0 01.82-.26c.55 0 1.08.32 1.08 1.37v.07c0 1.12-.56 1.57-1.62 1.57a3.74 3.74 0 01-1.28-.2zm1.9-1.25v-.09c0-.6-.19-.74-.54-.74a1.08 1.08 0 00-.41.09v1.46a.9.9 0 00.37.07c.32 0 .58-.19.58-.79zm1.23.6c0-.61.42-.81 1-.9l.52-.08v-.12c0-.31-.14-.37-.56-.37a3.16 3.16 0 00-.76.09V33a3.06 3.06 0 011.13-.17c.71 0 1.15.23 1.15.89v2.06h-.79l-.07-.22a.88.88 0 01-.74.27c-.51.01-.88-.25-.88-.83zm1.57.1v-.56h-.33c-.23 0-.32.12-.32.33s.13.32.31.32a.46.46 0 00.34-.07zm1.45-3.27h1v.73h-1zm0 1.06h1v2.9h-1zm1.47 0h.92v.35a.87.87 0 01.72-.38h.17v.85a.93.93 0 00-.25 0 1.43 1.43 0 00-.63.14v2h-1zm2.18 0h.92v.35a.87.87 0 01.72-.38h.17v.85a1 1 0 00-.25 0 1.43 1.43 0 00-.63.14v2h-1zm2.06 1.49v-.06a1.37 1.37 0 011.48-1.48 1.31 1.31 0 011.48 1.45v.07a1.37 1.37 0 01-1.48 1.48 1.32 1.32 0 01-1.48-1.46zm2 0v-.1c0-.69-.21-.81-.5-.81s-.49.19-.49.78v.11c0 .67.2.8.5.8s.46-.16.46-.76zm1.22 1.27V35a2.28 2.28 0 00.86.17c.35 0 .49-.09.49-.24s-.09-.19-.33-.22h-.27a.82.82 0 01-.77-.91c0-.58.38-.93 1.19-.93a2.19 2.19 0 01.92.15v.64a2.55 2.55 0 00-.8-.13c-.28 0-.42.07-.42.22s.1.19.33.23h.27a.8.8 0 01.8.9c0 .63-.4 1-1.27 1a2.34 2.34 0 01-1-.23zm2.53 0V35a2.33 2.33 0 00.86.17c.35 0 .49-.09.49-.24s-.08-.19-.33-.22h-.26a.81.81 0 01-.77-.91c0-.58.38-.93 1.18-.93a2.19 2.19 0 01.92.15v.64a2.48 2.48 0 00-.79-.13c-.29 0-.42.07-.42.22s.1.19.33.23h.27a.8.8 0 01.79.9c0 .63-.4 1-1.27 1a2.38 2.38 0 01-1-.23zM76.7 35c0-.61.42-.81 1-.9l.52-.08v-.12c0-.31-.14-.37-.56-.37a3.16 3.16 0 00-.76.09V33a3.06 3.06 0 011.13-.17c.71 0 1.15.23 1.15.89v2.06h-.79l-.07-.22a.88.88 0 01-.74.27c-.51.01-.88-.25-.88-.83zm1.57.1v-.56h-.33c-.23 0-.32.12-.32.33s.13.32.31.32a.46.46 0 00.34-.07zm1.42-.1v-2.11h1v1.91c0 .23.1.32.35.32a1.14 1.14 0 00.44-.1v-2.13h1v2.9h-.84l-.06-.25a1.34 1.34 0 01-.88.3c-.7 0-1.01-.24-1.01-.84zm3.08-.59v-.06c0-1.09.55-1.51 1.32-1.51a1.17 1.17 0 01.6.12v-1.2h1v4h-.83l-.06-.22a1.15 1.15 0 01-.81.27c-.68.03-1.22-.37-1.22-1.4zm1.92.61v-1.43a.73.73 0 00-.39-.1c-.34 0-.55.18-.55.8v.08c0 .62.21.77.53.77a.74.74 0 00.41-.14zM86 35c0-.61.42-.81 1-.9l.53-.08v-.12c0-.31-.14-.37-.56-.37a3.16 3.16 0 00-.76.09V33a3.06 3.06 0 011.13-.17c.71 0 1.15.23 1.15.89v2.06h-.79l-.07-.22a.88.88 0 01-.74.27c-.51.01-.89-.25-.89-.83zm1.57.1v-.56h-.33c-.23 0-.32.12-.32.33s.12.32.3.32a.47.47 0 00.36-.07zm1.04-2.21h1l.56 1.82.56-1.82h.9l-1 2.9h-1zm2.98 1.48v-.08A1.34 1.34 0 0193 32.84c1 0 1.34.54 1.34 1.49v.25h-1.78c.06.46.32.59.81.59a2.29 2.29 0 00.86-.18v.59a2.17 2.17 0 01-1.11.26 1.33 1.33 0 01-1.53-1.47zm1-.33h.87c0-.42-.14-.57-.42-.57s-.44.12-.48.53zm2.13-2.21h1v.73h-1zm0 1.06h1v2.9h-1zm1.37 2.76V35a2.33 2.33 0 00.86.17c.35 0 .49-.09.49-.24s-.08-.19-.33-.22h-.26a.81.81 0 01-.77-.91c0-.58.38-.93 1.18-.93a2.19 2.19 0 01.92.15v.64a2.48 2.48 0 00-.79-.13c-.29 0-.42.07-.42.22s.1.19.33.23h.27a.8.8 0 01.79.9c0 .63-.4 1-1.27 1a2.38 2.38 0 01-1-.23zm2.58-.56h.92v.85h-.92zm1.11.91c0-.29.23-.44.54-.54A.45.45 0 01100 35a.66.66 0 01.36-.53.76.76 0 01-.38-.69c0-.62.48-.93 1.25-.93a2.22 2.22 0 01.53 0h1v.54h-.37a.52.52 0 01.1.31c0 .6-.49.89-1.24.89a1.87 1.87 0 01-.42 0c0 .05-.06.06-.06.11s.07.14.22.14h.83c.62 0 1 .22 1 .77s-.5 1-1.57 1-1.47-.24-1.47-.61zm2.06-.19c0-.17-.08-.19-.38-.19h-.61c-.12 0-.2.09-.2.23s.12.24.55.24.64-.09.64-.3zm-.26-2c0-.3-.13-.37-.35-.37s-.35.09-.35.36v.05c0 .27.12.36.35.36s.35-.16.35-.43zm1.35.57v-.06a1.37 1.37 0 011.48-1.48 1.31 1.31 0 011.48 1.45v.07a1.37 1.37 0 01-1.48 1.48 1.32 1.32 0 01-1.48-1.46zm2 0v-.1c0-.69-.2-.81-.5-.81s-.49.19-.49.78v.11c0 .67.21.8.51.8s.45-.16.45-.76zm.89-1.49h1l.56 1.82.56-1.82h.9l-1 2.9h-1zm2.93 2.2h.92v.85h-.92zm1.35-2.2h.9v.24a1.17 1.17 0 01.84-.29c.57 0 1.1.33 1.1 1.39v.07c0 1.14-.55 1.54-1.35 1.54a1.4 1.4 0 01-.58-.1v.9h-1zm1.9 1.52v-.09c0-.6-.19-.75-.52-.75a.76.76 0 00-.43.12v1.39a.73.73 0 00.4.11c.35 0 .55-.19.55-.78zm1.55.59v-1.44h-.36v-.67h.36v-.68h1v.68h.58v.67h-.58v1.3c0 .21.08.27.31.27a1.29 1.29 0 00.29 0v.62a1.49 1.49 0 01-.64.11c-.61-.03-.96-.22-.96-.86z" fill="#007447"/></g></svg>