<svg width="1440" height="477" viewBox="0 0 1440 477" fill="none" xmlns="http://www.w3.org/2000/svg">
<path d="M537.157 408.771H399V477H1440V0H1354.45L1341.2 23.9561H1155.25L1123.52 47.9123L1134.37 65.5003V129.181H1067.3L1040.39 153.137V256.543H866.888L852.429 286.867V332.96H682.544V391.182L671.299 383.905H548.001L537.157 408.771Z" fill="#F2E0AB"/>
<path d="M9.17805 138.795H0V477H806V345.894H796.822V213.952L791.816 209.777V151.322L760.944 128.775L734.244 154.662V209.777L668.329 132.115L586.561 218.962V209.777H520.646V218.962L526.487 223.138V237.334H511.468V232.324H463.075V191.405L450.559 176.374L436.375 187.23L424.694 176.374L413.012 187.23L403 176.374L394.656 187.23L385.478 168.858H358.778V114.578H290.36V104.557L280.348 89.5261H261.157L252.814 104.557L227.783 89.5261H166.874L146.849 97.8768L118.48 77L106.799 86.1858L90.1118 97.8768H61.7433L42.5528 114.578H17.5217L9.17805 127.939V138.795Z" fill="#F2E0AB"/>
</svg>
