<svg width="1225" height="357" viewBox="0 0 1225 357" fill="none" xmlns="http://www.w3.org/2000/svg">
<g opacity="0.7">
<rect x="4.1349" y="75.0646" width="135.546" height="277.467" fill="#F7D778" stroke="#EDECEC" stroke-width="7.79269"/>
<rect x="32.5864" y="96.1993" width="22.9058" height="47.7007" fill="#1B6BB0"/>
<line x1="44.2737" y1="96.1993" x2="44.2737" y2="143.9" stroke="#EDECEC" stroke-width="2.12528"/>
<line x1="32.5864" y1="107.889" x2="55.4922" y2="107.889" stroke="#EDECEC" stroke-width="0.708427"/>
<line x1="32.5864" y1="120.404" x2="55.4922" y2="120.404" stroke="#EDECEC" stroke-width="0.708427"/>
<line x1="32.5864" y1="133.392" x2="55.4922" y2="133.392" stroke="#EDECEC" stroke-width="0.708427"/>
<rect x="30.1061" y="93.484" width="28.3371" height="53.3682" stroke="#BEC1D4" stroke-width="4.01442"/>
<line x1="21.0117" y1="150.866" x2="68.2402" y2="150.866" stroke="#C8BCAE" stroke-width="5.90355"/>
<rect x="91.1487" y="96.9088" width="22.9058" height="47.7007" fill="#1B6BB0"/>
<line x1="102.836" y1="96.9088" x2="102.836" y2="144.61" stroke="#EDECEC" stroke-width="2.12528"/>
<line x1="91.1487" y1="108.598" x2="114.054" y2="108.598" stroke="#EDECEC" stroke-width="0.708427"/>
<line x1="91.1487" y1="121.114" x2="114.054" y2="121.114" stroke="#EDECEC" stroke-width="0.708427"/>
<line x1="91.1487" y1="134.101" x2="114.054" y2="134.101" stroke="#EDECEC" stroke-width="0.708427"/>
<rect x="88.6687" y="94.193" width="28.3371" height="53.3682" stroke="#BEC1D4" stroke-width="4.01442"/>
<line x1="79.5781" y1="151.575" x2="126.807" y2="151.575" stroke="#C8BCAE" stroke-width="5.90355"/>
<rect x="32.1172" y="162.556" width="22.9058" height="47.7007" fill="#1B6BB0"/>
<line x1="43.8045" y1="162.556" x2="43.8045" y2="210.256" stroke="#EDECEC" stroke-width="2.12528"/>
<line x1="32.1172" y1="174.245" x2="55.023" y2="174.245" stroke="#EDECEC" stroke-width="0.708427"/>
<line x1="32.1172" y1="186.761" x2="55.023" y2="186.761" stroke="#EDECEC" stroke-width="0.708427"/>
<line x1="32.1172" y1="199.749" x2="55.023" y2="199.749" stroke="#EDECEC" stroke-width="0.708427"/>
<rect x="29.6374" y="159.84" width="28.3371" height="53.3682" stroke="#BEC1D4" stroke-width="4.01442"/>
<line x1="20.5438" y1="217.223" x2="67.7722" y2="217.223" stroke="#C8BCAE" stroke-width="5.90355"/>
<rect x="89.7316" y="163.264" width="22.9058" height="47.7007" fill="#1B6BB0"/>
<line x1="101.422" y1="163.264" x2="101.422" y2="210.965" stroke="#EDECEC" stroke-width="2.12528"/>
<line x1="89.7316" y1="174.953" x2="112.637" y2="174.953" stroke="#EDECEC" stroke-width="0.708427"/>
<line x1="89.7316" y1="187.469" x2="112.637" y2="187.469" stroke="#EDECEC" stroke-width="0.708427"/>
<line x1="89.7316" y1="200.457" x2="112.637" y2="200.457" stroke="#EDECEC" stroke-width="0.708427"/>
<rect x="87.2547" y="160.549" width="28.3371" height="53.3682" stroke="#BEC1D4" stroke-width="4.01442"/>
<line x1="78.164" y1="217.931" x2="125.392" y2="217.931" stroke="#C8BCAE" stroke-width="5.90355"/>
<rect x="31.1724" y="234.816" width="22.9058" height="47.7007" fill="#1B6BB0"/>
<line x1="42.8597" y1="234.816" x2="42.8597" y2="282.517" stroke="#EDECEC" stroke-width="2.12528"/>
<line x1="31.1724" y1="246.505" x2="54.0782" y2="246.505" stroke="#EDECEC" stroke-width="0.708427"/>
<line x1="31.1724" y1="259.021" x2="54.0782" y2="259.021" stroke="#EDECEC" stroke-width="0.708427"/>
<line x1="31.1724" y1="272.008" x2="54.0782" y2="272.008" stroke="#EDECEC" stroke-width="0.708427"/>
<rect x="28.692" y="232.1" width="28.3371" height="53.3682" stroke="#BEC1D4" stroke-width="4.01442"/>
<line x1="19.5977" y1="289.482" x2="66.8262" y2="289.482" stroke="#C8BCAE" stroke-width="5.90355"/>
<rect x="88.3123" y="235.523" width="22.9058" height="47.7007" fill="#1B6BB0"/>
<line x1="99.9994" y1="235.523" x2="99.9994" y2="283.224" stroke="#EDECEC" stroke-width="2.12528"/>
<line x1="88.3123" y1="247.213" x2="111.218" y2="247.213" stroke="#EDECEC" stroke-width="0.708427"/>
<line x1="88.3123" y1="259.728" x2="111.218" y2="259.728" stroke="#EDECEC" stroke-width="0.708427"/>
<line x1="88.3123" y1="272.716" x2="111.218" y2="272.716" stroke="#EDECEC" stroke-width="0.708427"/>
<rect x="85.8318" y="232.808" width="28.3371" height="53.3682" stroke="#BEC1D4" stroke-width="4.01442"/>
<line x1="76.7453" y1="290.191" x2="123.974" y2="290.191" stroke="#C8BCAE" stroke-width="5.90355"/>
<rect y="54.6387" width="143.338" height="15.8215" fill="#C4C4C4"/>
</g>
<g opacity="0.7">
<rect x="283.455" y="71.0158" width="135.546" height="277.467" fill="#FBD4CF" stroke="#EDECEC" stroke-width="7.79269"/>
<rect x="311.907" y="92.1511" width="22.9058" height="47.7007" fill="#1B6BB0"/>
<line x1="323.594" y1="92.1511" x2="323.594" y2="139.852" stroke="#EDECEC" stroke-width="2.12528"/>
<line x1="311.907" y1="103.84" x2="334.813" y2="103.84" stroke="#EDECEC" stroke-width="0.708427"/>
<line x1="311.907" y1="116.356" x2="334.813" y2="116.356" stroke="#EDECEC" stroke-width="0.708427"/>
<line x1="311.907" y1="129.343" x2="334.813" y2="129.343" stroke="#EDECEC" stroke-width="0.708427"/>
<rect x="309.427" y="89.4352" width="28.3371" height="53.3682" stroke="#BEC1D4" stroke-width="4.01442"/>
<line x1="300.336" y1="146.818" x2="347.565" y2="146.818" stroke="#C8BCAE" stroke-width="5.90355"/>
<rect x="370.465" y="92.8586" width="22.9058" height="47.7007" fill="#1B6BB0"/>
<line x1="382.152" y1="92.8586" x2="382.152" y2="140.559" stroke="#EDECEC" stroke-width="2.12528"/>
<line x1="370.465" y1="104.548" x2="393.37" y2="104.548" stroke="#EDECEC" stroke-width="0.708427"/>
<line x1="370.465" y1="117.064" x2="393.37" y2="117.064" stroke="#EDECEC" stroke-width="0.708427"/>
<line x1="370.465" y1="130.051" x2="393.37" y2="130.051" stroke="#EDECEC" stroke-width="0.708427"/>
<rect x="367.985" y="90.1432" width="28.3371" height="53.3682" stroke="#BEC1D4" stroke-width="4.01442"/>
<line x1="358.898" y1="147.526" x2="406.127" y2="147.526" stroke="#C8BCAE" stroke-width="5.90355"/>
<rect x="311.437" y="158.507" width="22.9058" height="47.7007" fill="#1B6BB0"/>
<line x1="323.125" y1="158.507" x2="323.125" y2="206.208" stroke="#EDECEC" stroke-width="2.12528"/>
<line x1="311.437" y1="170.196" x2="334.343" y2="170.196" stroke="#EDECEC" stroke-width="0.708427"/>
<line x1="311.437" y1="182.712" x2="334.343" y2="182.712" stroke="#EDECEC" stroke-width="0.708427"/>
<line x1="311.437" y1="195.7" x2="334.343" y2="195.7" stroke="#EDECEC" stroke-width="0.708427"/>
<rect x="308.957" y="155.791" width="28.3371" height="53.3682" stroke="#BEC1D4" stroke-width="4.01442"/>
<line x1="299.866" y1="213.174" x2="347.095" y2="213.174" stroke="#C8BCAE" stroke-width="5.90355"/>
<rect x="369.051" y="159.215" width="22.9058" height="47.7007" fill="#1B6BB0"/>
<line x1="380.745" y1="159.215" x2="380.745" y2="206.916" stroke="#EDECEC" stroke-width="2.12528"/>
<line x1="369.051" y1="170.905" x2="391.957" y2="170.905" stroke="#EDECEC" stroke-width="0.708427"/>
<line x1="369.051" y1="183.42" x2="391.957" y2="183.42" stroke="#EDECEC" stroke-width="0.708427"/>
<line x1="369.051" y1="196.408" x2="391.957" y2="196.408" stroke="#EDECEC" stroke-width="0.708427"/>
<rect x="366.575" y="156.5" width="28.3371" height="53.3682" stroke="#BEC1D4" stroke-width="4.01442"/>
<line x1="357.484" y1="213.882" x2="404.713" y2="213.882" stroke="#C8BCAE" stroke-width="5.90355"/>
<rect x="310.49" y="230.767" width="22.9058" height="47.7007" fill="#1B6BB0"/>
<line x1="322.177" y1="230.767" x2="322.177" y2="278.468" stroke="#EDECEC" stroke-width="2.12528"/>
<line x1="310.49" y1="242.456" x2="333.396" y2="242.456" stroke="#EDECEC" stroke-width="0.708427"/>
<line x1="310.49" y1="254.971" x2="333.396" y2="254.971" stroke="#EDECEC" stroke-width="0.708427"/>
<line x1="310.49" y1="267.959" x2="333.396" y2="267.959" stroke="#EDECEC" stroke-width="0.708427"/>
<rect x="308.009" y="228.051" width="28.3371" height="53.3682" stroke="#BEC1D4" stroke-width="4.01442"/>
<line x1="298.919" y1="285.433" x2="346.147" y2="285.433" stroke="#C8BCAE" stroke-width="5.90355"/>
<rect x="367.638" y="231.474" width="22.9058" height="47.7007" fill="#1B6BB0"/>
<line x1="379.325" y1="231.474" x2="379.325" y2="279.175" stroke="#EDECEC" stroke-width="2.12528"/>
<line x1="367.638" y1="243.163" x2="390.544" y2="243.163" stroke="#EDECEC" stroke-width="0.708427"/>
<line x1="367.638" y1="255.679" x2="390.544" y2="255.679" stroke="#EDECEC" stroke-width="0.708427"/>
<line x1="367.638" y1="268.667" x2="390.544" y2="268.667" stroke="#EDECEC" stroke-width="0.708427"/>
<rect x="365.158" y="228.759" width="28.3371" height="53.3682" stroke="#BEC1D4" stroke-width="4.01442"/>
<line x1="356.067" y1="286.142" x2="403.296" y2="286.142" stroke="#C8BCAE" stroke-width="5.90355"/>
<rect x="279.32" y="50.5898" width="143.338" height="15.8215" fill="#C4C4C4"/>
</g>
<g opacity="0.7">
<rect x="805.479" y="51.7999" width="135.546" height="277.467" fill="#F7D778" stroke="#EDECEC" stroke-width="7.79269"/>
<rect x="833.93" y="72.9349" width="22.9058" height="47.7007" fill="#1B6BB0"/>
<line x1="845.618" y1="72.9349" x2="845.618" y2="120.636" stroke="#EDECEC" stroke-width="2.12528"/>
<line x1="833.93" y1="84.6241" x2="856.836" y2="84.6241" stroke="#EDECEC" stroke-width="0.708427"/>
<line x1="833.93" y1="97.1399" x2="856.836" y2="97.1399" stroke="#EDECEC" stroke-width="0.708427"/>
<line x1="833.93" y1="110.128" x2="856.836" y2="110.128" stroke="#EDECEC" stroke-width="0.708427"/>
<rect x="831.45" y="70.2194" width="28.3371" height="53.3682" stroke="#BEC1D4" stroke-width="4.01442"/>
<line x1="822.355" y1="127.602" x2="869.584" y2="127.602" stroke="#C8BCAE" stroke-width="5.90355"/>
<rect x="892.492" y="73.6442" width="22.9058" height="47.7007" fill="#1B6BB0"/>
<line x1="904.18" y1="73.6442" x2="904.18" y2="121.345" stroke="#EDECEC" stroke-width="2.12528"/>
<line x1="892.492" y1="85.3332" x2="915.398" y2="85.3332" stroke="#EDECEC" stroke-width="0.708427"/>
<line x1="892.492" y1="97.8489" x2="915.398" y2="97.8489" stroke="#EDECEC" stroke-width="0.708427"/>
<line x1="892.492" y1="110.836" x2="915.398" y2="110.836" stroke="#EDECEC" stroke-width="0.708427"/>
<rect x="890.012" y="70.9284" width="28.3371" height="53.3682" stroke="#BEC1D4" stroke-width="4.01442"/>
<line x1="880.922" y1="128.311" x2="928.15" y2="128.311" stroke="#C8BCAE" stroke-width="5.90355"/>
<rect x="833.461" y="139.291" width="22.9058" height="47.7007" fill="#1B6BB0"/>
<line x1="845.148" y1="139.291" x2="845.148" y2="186.991" stroke="#EDECEC" stroke-width="2.12528"/>
<line x1="833.461" y1="150.98" x2="856.367" y2="150.98" stroke="#EDECEC" stroke-width="0.708427"/>
<line x1="833.461" y1="163.495" x2="856.367" y2="163.495" stroke="#EDECEC" stroke-width="0.708427"/>
<line x1="833.461" y1="176.483" x2="856.367" y2="176.483" stroke="#EDECEC" stroke-width="0.708427"/>
<rect x="830.981" y="136.575" width="28.3371" height="53.3682" stroke="#BEC1D4" stroke-width="4.01442"/>
<line x1="821.888" y1="193.958" x2="869.116" y2="193.958" stroke="#C8BCAE" stroke-width="5.90355"/>
<rect x="891.074" y="140" width="22.9058" height="47.7007" fill="#1B6BB0"/>
<line x1="902.765" y1="140" x2="902.765" y2="187.7" stroke="#EDECEC" stroke-width="2.12528"/>
<line x1="891.074" y1="151.689" x2="913.98" y2="151.689" stroke="#EDECEC" stroke-width="0.708427"/>
<line x1="891.074" y1="164.204" x2="913.98" y2="164.204" stroke="#EDECEC" stroke-width="0.708427"/>
<line x1="891.074" y1="177.193" x2="913.98" y2="177.193" stroke="#EDECEC" stroke-width="0.708427"/>
<rect x="888.598" y="137.284" width="28.3371" height="53.3682" stroke="#BEC1D4" stroke-width="4.01442"/>
<line x1="879.508" y1="194.666" x2="926.736" y2="194.666" stroke="#C8BCAE" stroke-width="5.90355"/>
<rect x="832.516" y="211.551" width="22.9058" height="47.7007" fill="#1B6BB0"/>
<line x1="844.203" y1="211.551" x2="844.203" y2="259.252" stroke="#EDECEC" stroke-width="2.12528"/>
<line x1="832.516" y1="223.24" x2="855.422" y2="223.24" stroke="#EDECEC" stroke-width="0.708427"/>
<line x1="832.516" y1="235.756" x2="855.422" y2="235.756" stroke="#EDECEC" stroke-width="0.708427"/>
<line x1="832.516" y1="248.744" x2="855.422" y2="248.744" stroke="#EDECEC" stroke-width="0.708427"/>
<rect x="830.036" y="208.836" width="28.3371" height="53.3682" stroke="#BEC1D4" stroke-width="4.01442"/>
<line x1="820.941" y1="266.218" x2="868.17" y2="266.218" stroke="#C8BCAE" stroke-width="5.90355"/>
<rect x="889.656" y="212.258" width="22.9058" height="47.7007" fill="#1B6BB0"/>
<line x1="901.343" y1="212.258" x2="901.343" y2="259.959" stroke="#EDECEC" stroke-width="2.12528"/>
<line x1="889.656" y1="223.948" x2="912.562" y2="223.948" stroke="#EDECEC" stroke-width="0.708427"/>
<line x1="889.656" y1="236.463" x2="912.562" y2="236.463" stroke="#EDECEC" stroke-width="0.708427"/>
<line x1="889.656" y1="249.451" x2="912.562" y2="249.451" stroke="#EDECEC" stroke-width="0.708427"/>
<rect x="887.176" y="209.543" width="28.3371" height="53.3682" stroke="#BEC1D4" stroke-width="4.01442"/>
<line x1="878.089" y1="266.926" x2="925.318" y2="266.926" stroke="#C8BCAE" stroke-width="5.90355"/>
<rect x="801.344" y="31.374" width="143.338" height="15.8215" fill="#C4C4C4"/>
</g>
<g opacity="0.7">
<rect x="139.747" y="43.6908" width="135.546" height="277.467" fill="#78BAF7" stroke="#EDECEC" stroke-width="7.79269"/>
<rect x="168.2" y="64.8251" width="22.9058" height="47.7007" fill="#1B6BB0"/>
<line x1="179.887" y1="64.8251" x2="179.887" y2="112.526" stroke="#EDECEC" stroke-width="2.12528"/>
<line x1="168.2" y1="76.5146" x2="191.106" y2="76.5146" stroke="#EDECEC" stroke-width="0.708427"/>
<line x1="168.2" y1="89.0302" x2="191.106" y2="89.0303" stroke="#EDECEC" stroke-width="0.708427"/>
<line x1="168.2" y1="102.018" x2="191.106" y2="102.018" stroke="#EDECEC" stroke-width="0.708427"/>
<rect x="165.719" y="62.1098" width="28.3371" height="53.3682" stroke="#BEC1D4" stroke-width="4.01442"/>
<line x1="156.629" y1="119.492" x2="203.857" y2="119.492" stroke="#C8BCAE" stroke-width="5.90355"/>
<rect x="226.762" y="65.5344" width="22.9058" height="47.7007" fill="#1B6BB0"/>
<line x1="238.45" y1="65.5344" x2="238.45" y2="113.235" stroke="#EDECEC" stroke-width="2.12528"/>
<line x1="226.762" y1="77.2239" x2="249.668" y2="77.2239" stroke="#EDECEC" stroke-width="0.708427"/>
<line x1="226.762" y1="89.7396" x2="249.668" y2="89.7396" stroke="#EDECEC" stroke-width="0.708427"/>
<line x1="226.762" y1="102.727" x2="249.668" y2="102.727" stroke="#EDECEC" stroke-width="0.708427"/>
<rect x="224.282" y="62.819" width="28.3371" height="53.3682" stroke="#BEC1D4" stroke-width="4.01442"/>
<line x1="215.191" y1="120.201" x2="262.42" y2="120.201" stroke="#C8BCAE" stroke-width="5.90355"/>
<rect x="167.731" y="131.182" width="22.9058" height="47.7007" fill="#1B6BB0"/>
<line x1="179.418" y1="131.182" x2="179.418" y2="178.883" stroke="#EDECEC" stroke-width="2.12528"/>
<line x1="167.731" y1="142.871" x2="190.637" y2="142.871" stroke="#EDECEC" stroke-width="0.708427"/>
<line x1="167.731" y1="155.387" x2="190.637" y2="155.387" stroke="#EDECEC" stroke-width="0.708427"/>
<line x1="167.731" y1="168.375" x2="190.637" y2="168.375" stroke="#EDECEC" stroke-width="0.708427"/>
<rect x="165.251" y="128.466" width="28.3371" height="53.3682" stroke="#BEC1D4" stroke-width="4.01442"/>
<line x1="156.16" y1="185.849" x2="203.389" y2="185.849" stroke="#C8BCAE" stroke-width="5.90355"/>
<rect x="225.348" y="131.891" width="22.9058" height="47.7007" fill="#1B6BB0"/>
<line x1="237.036" y1="131.891" x2="237.036" y2="179.591" stroke="#EDECEC" stroke-width="2.12528"/>
<line x1="225.348" y1="143.579" x2="248.254" y2="143.579" stroke="#EDECEC" stroke-width="0.708427"/>
<line x1="225.348" y1="156.095" x2="248.254" y2="156.095" stroke="#EDECEC" stroke-width="0.708427"/>
<line x1="225.348" y1="169.082" x2="248.254" y2="169.082" stroke="#EDECEC" stroke-width="0.708427"/>
<rect x="222.868" y="129.174" width="28.3371" height="53.3682" stroke="#BEC1D4" stroke-width="4.01442"/>
<line x1="213.777" y1="186.557" x2="261.006" y2="186.557" stroke="#C8BCAE" stroke-width="5.90355"/>
<rect x="166.783" y="203.442" width="22.9058" height="47.7007" fill="#1B6BB0"/>
<line x1="178.47" y1="203.442" x2="178.47" y2="251.143" stroke="#EDECEC" stroke-width="2.12528"/>
<line x1="166.783" y1="215.131" x2="189.689" y2="215.131" stroke="#EDECEC" stroke-width="0.708427"/>
<line x1="166.783" y1="227.646" x2="189.689" y2="227.646" stroke="#EDECEC" stroke-width="0.708427"/>
<line x1="166.783" y1="240.634" x2="189.689" y2="240.634" stroke="#EDECEC" stroke-width="0.708427"/>
<rect x="164.302" y="200.726" width="28.3371" height="53.3682" stroke="#BEC1D4" stroke-width="4.01442"/>
<line x1="155.211" y1="258.108" x2="202.44" y2="258.108" stroke="#C8BCAE" stroke-width="5.90355"/>
<rect x="223.931" y="204.15" width="22.9058" height="47.7007" fill="#1B6BB0"/>
<line x1="235.618" y1="204.15" x2="235.618" y2="251.85" stroke="#EDECEC" stroke-width="2.12528"/>
<line x1="223.931" y1="215.839" x2="246.837" y2="215.839" stroke="#EDECEC" stroke-width="0.708427"/>
<line x1="223.931" y1="228.354" x2="246.837" y2="228.354" stroke="#EDECEC" stroke-width="0.708427"/>
<line x1="223.931" y1="241.342" x2="246.837" y2="241.342" stroke="#EDECEC" stroke-width="0.708427"/>
<rect x="221.45" y="201.434" width="28.3371" height="53.3682" stroke="#BEC1D4" stroke-width="4.01442"/>
<line x1="212.359" y1="258.817" x2="259.588" y2="258.817" stroke="#C8BCAE" stroke-width="5.90355"/>
<rect x="135.613" y="23.2646" width="143.338" height="15.8215" fill="#C4C4C4"/>
</g>
<g opacity="0.7">
<rect x="941.091" y="20.4262" width="135.546" height="277.467" fill="#78BAF7" stroke="#EDECEC" stroke-width="7.79269"/>
<rect x="969.544" y="41.5609" width="22.9058" height="47.7007" fill="#1B6BB0"/>
<line x1="981.231" y1="41.5609" x2="981.231" y2="89.2616" stroke="#EDECEC" stroke-width="2.12528"/>
<line x1="969.544" y1="53.25" x2="992.45" y2="53.25" stroke="#EDECEC" stroke-width="0.708427"/>
<line x1="969.544" y1="65.7658" x2="992.45" y2="65.7658" stroke="#EDECEC" stroke-width="0.708427"/>
<line x1="969.544" y1="78.7536" x2="992.45" y2="78.7536" stroke="#EDECEC" stroke-width="0.708427"/>
<rect x="967.063" y="38.8455" width="28.3371" height="53.3682" stroke="#BEC1D4" stroke-width="4.01442"/>
<line x1="957.972" y1="96.2278" x2="1005.2" y2="96.2278" stroke="#C8BCAE" stroke-width="5.90355"/>
<rect x="1028.11" y="42.2699" width="22.9058" height="47.7007" fill="#1B6BB0"/>
<line x1="1039.79" y1="42.2699" x2="1039.79" y2="89.9706" stroke="#EDECEC" stroke-width="2.12528"/>
<line x1="1028.11" y1="53.959" x2="1051.01" y2="53.959" stroke="#EDECEC" stroke-width="0.708427"/>
<line x1="1028.11" y1="66.4748" x2="1051.01" y2="66.4748" stroke="#EDECEC" stroke-width="0.708427"/>
<line x1="1028.11" y1="79.4624" x2="1051.01" y2="79.4624" stroke="#EDECEC" stroke-width="0.708427"/>
<rect x="1025.63" y="39.5543" width="28.3371" height="53.3682" stroke="#BEC1D4" stroke-width="4.01442"/>
<line x1="1016.54" y1="96.9367" x2="1063.76" y2="96.9367" stroke="#C8BCAE" stroke-width="5.90355"/>
<rect x="969.075" y="107.917" width="22.9058" height="47.7007" fill="#1B6BB0"/>
<line x1="980.762" y1="107.917" x2="980.762" y2="155.618" stroke="#EDECEC" stroke-width="2.12528"/>
<line x1="969.075" y1="119.607" x2="991.981" y2="119.607" stroke="#EDECEC" stroke-width="0.708427"/>
<line x1="969.075" y1="132.122" x2="991.981" y2="132.122" stroke="#EDECEC" stroke-width="0.708427"/>
<line x1="969.075" y1="145.11" x2="991.981" y2="145.11" stroke="#EDECEC" stroke-width="0.708427"/>
<rect x="966.594" y="105.202" width="28.3371" height="53.3682" stroke="#BEC1D4" stroke-width="4.01442"/>
<line x1="957.504" y1="162.584" x2="1004.73" y2="162.584" stroke="#C8BCAE" stroke-width="5.90355"/>
<rect x="1026.69" y="108.627" width="22.9058" height="47.7007" fill="#1B6BB0"/>
<line x1="1038.38" y1="108.627" x2="1038.38" y2="156.328" stroke="#EDECEC" stroke-width="2.12528"/>
<line x1="1026.69" y1="120.316" x2="1049.59" y2="120.316" stroke="#EDECEC" stroke-width="0.708427"/>
<line x1="1026.69" y1="132.831" x2="1049.59" y2="132.831" stroke="#EDECEC" stroke-width="0.708427"/>
<line x1="1026.69" y1="145.819" x2="1049.59" y2="145.819" stroke="#EDECEC" stroke-width="0.708427"/>
<rect x="1024.21" y="105.911" width="28.3371" height="53.3682" stroke="#BEC1D4" stroke-width="4.01442"/>
<line x1="1015.12" y1="163.293" x2="1062.35" y2="163.293" stroke="#C8BCAE" stroke-width="5.90355"/>
<rect x="968.126" y="180.177" width="22.9058" height="47.7007" fill="#1B6BB0"/>
<line x1="979.814" y1="180.177" x2="979.814" y2="227.878" stroke="#EDECEC" stroke-width="2.12528"/>
<line x1="968.126" y1="191.866" x2="991.032" y2="191.866" stroke="#EDECEC" stroke-width="0.708427"/>
<line x1="968.126" y1="204.382" x2="991.032" y2="204.382" stroke="#EDECEC" stroke-width="0.708427"/>
<line x1="968.126" y1="217.37" x2="991.032" y2="217.37" stroke="#EDECEC" stroke-width="0.708427"/>
<rect x="965.646" y="177.461" width="28.3371" height="53.3682" stroke="#BEC1D4" stroke-width="4.01442"/>
<line x1="956.555" y1="234.844" x2="1003.78" y2="234.844" stroke="#C8BCAE" stroke-width="5.90355"/>
<rect x="1025.28" y="180.885" width="22.9058" height="47.7007" fill="#1B6BB0"/>
<line x1="1036.96" y1="180.885" x2="1036.96" y2="228.585" stroke="#EDECEC" stroke-width="2.12528"/>
<line x1="1025.28" y1="192.574" x2="1048.18" y2="192.574" stroke="#EDECEC" stroke-width="0.708427"/>
<line x1="1025.28" y1="205.089" x2="1048.18" y2="205.089" stroke="#EDECEC" stroke-width="0.708427"/>
<line x1="1025.28" y1="218.077" x2="1048.18" y2="218.077" stroke="#EDECEC" stroke-width="0.708427"/>
<rect x="1022.79" y="178.169" width="28.3371" height="53.3682" stroke="#BEC1D4" stroke-width="4.01442"/>
<line x1="1013.7" y1="235.552" x2="1060.93" y2="235.552" stroke="#C8BCAE" stroke-width="5.90355"/>
<rect x="936.957" width="143.338" height="15.8215" fill="#C4C4C4"/>
</g>
<g opacity="0.7">
<rect x="1084.8" y="47.7511" width="135.546" height="277.467" fill="#FBD4CF" stroke="#EDECEC" stroke-width="7.79269"/>
<rect x="1113.25" y="68.8861" width="22.9058" height="47.7007" fill="#1B6BB0"/>
<line x1="1124.94" y1="68.8861" x2="1124.94" y2="116.587" stroke="#EDECEC" stroke-width="2.12528"/>
<line x1="1113.25" y1="80.5751" x2="1136.16" y2="80.5751" stroke="#EDECEC" stroke-width="0.708427"/>
<line x1="1113.25" y1="93.0909" x2="1136.16" y2="93.0909" stroke="#EDECEC" stroke-width="0.708427"/>
<line x1="1113.25" y1="106.079" x2="1136.16" y2="106.079" stroke="#EDECEC" stroke-width="0.708427"/>
<rect x="1110.77" y="66.1705" width="28.3371" height="53.3682" stroke="#BEC1D4" stroke-width="4.01442"/>
<line x1="1101.68" y1="123.553" x2="1148.91" y2="123.553" stroke="#C8BCAE" stroke-width="5.90355"/>
<rect x="1171.81" y="69.594" width="22.9058" height="47.7007" fill="#1B6BB0"/>
<line x1="1183.5" y1="69.594" x2="1183.5" y2="117.295" stroke="#EDECEC" stroke-width="2.12528"/>
<line x1="1171.81" y1="81.2832" x2="1194.71" y2="81.2832" stroke="#EDECEC" stroke-width="0.708427"/>
<line x1="1171.81" y1="93.7989" x2="1194.71" y2="93.7989" stroke="#EDECEC" stroke-width="0.708427"/>
<line x1="1171.81" y1="106.787" x2="1194.71" y2="106.787" stroke="#EDECEC" stroke-width="0.708427"/>
<rect x="1169.33" y="66.8785" width="28.3371" height="53.3682" stroke="#BEC1D4" stroke-width="4.01442"/>
<line x1="1160.24" y1="124.262" x2="1207.47" y2="124.262" stroke="#C8BCAE" stroke-width="5.90355"/>
<rect x="1112.78" y="135.243" width="22.9058" height="47.7007" fill="#1B6BB0"/>
<line x1="1124.47" y1="135.243" x2="1124.47" y2="182.943" stroke="#EDECEC" stroke-width="2.12528"/>
<line x1="1112.78" y1="146.932" x2="1135.69" y2="146.932" stroke="#EDECEC" stroke-width="0.708427"/>
<line x1="1112.78" y1="159.447" x2="1135.69" y2="159.447" stroke="#EDECEC" stroke-width="0.708427"/>
<line x1="1112.78" y1="172.435" x2="1135.69" y2="172.435" stroke="#EDECEC" stroke-width="0.708427"/>
<rect x="1110.3" y="132.527" width="28.3371" height="53.3682" stroke="#BEC1D4" stroke-width="4.01442"/>
<line x1="1101.21" y1="189.909" x2="1148.44" y2="189.909" stroke="#C8BCAE" stroke-width="5.90355"/>
<rect x="1170.39" y="135.951" width="22.9058" height="47.7007" fill="#1B6BB0"/>
<line x1="1182.09" y1="135.952" x2="1182.09" y2="183.652" stroke="#EDECEC" stroke-width="2.12528"/>
<line x1="1170.39" y1="147.64" x2="1193.3" y2="147.64" stroke="#EDECEC" stroke-width="0.708427"/>
<line x1="1170.39" y1="160.157" x2="1193.3" y2="160.157" stroke="#EDECEC" stroke-width="0.708427"/>
<line x1="1170.39" y1="173.144" x2="1193.3" y2="173.144" stroke="#EDECEC" stroke-width="0.708427"/>
<rect x="1167.92" y="133.236" width="28.3371" height="53.3682" stroke="#BEC1D4" stroke-width="4.01442"/>
<line x1="1158.83" y1="190.618" x2="1206.06" y2="190.618" stroke="#C8BCAE" stroke-width="5.90355"/>
<rect x="1111.83" y="207.503" width="22.9058" height="47.7007" fill="#1B6BB0"/>
<line x1="1123.52" y1="207.503" x2="1123.52" y2="255.203" stroke="#EDECEC" stroke-width="2.12528"/>
<line x1="1111.83" y1="219.192" x2="1134.74" y2="219.192" stroke="#EDECEC" stroke-width="0.708427"/>
<line x1="1111.83" y1="231.707" x2="1134.74" y2="231.707" stroke="#EDECEC" stroke-width="0.708427"/>
<line x1="1111.83" y1="244.695" x2="1134.74" y2="244.695" stroke="#EDECEC" stroke-width="0.708427"/>
<rect x="1109.35" y="204.787" width="28.3371" height="53.3682" stroke="#BEC1D4" stroke-width="4.01442"/>
<line x1="1100.26" y1="262.169" x2="1147.49" y2="262.169" stroke="#C8BCAE" stroke-width="5.90355"/>
<rect x="1168.98" y="208.211" width="22.9058" height="47.7007" fill="#1B6BB0"/>
<line x1="1180.67" y1="208.21" x2="1180.67" y2="255.911" stroke="#EDECEC" stroke-width="2.12528"/>
<line x1="1168.98" y1="219.899" x2="1191.89" y2="219.899" stroke="#EDECEC" stroke-width="0.708427"/>
<line x1="1168.98" y1="232.415" x2="1191.89" y2="232.415" stroke="#EDECEC" stroke-width="0.708427"/>
<line x1="1168.98" y1="245.403" x2="1191.89" y2="245.403" stroke="#EDECEC" stroke-width="0.708427"/>
<rect x="1166.5" y="205.494" width="28.3371" height="53.3682" stroke="#BEC1D4" stroke-width="4.01442"/>
<line x1="1157.41" y1="262.877" x2="1204.64" y2="262.877" stroke="#C8BCAE" stroke-width="5.90355"/>
<rect x="1080.66" y="27.3252" width="143.338" height="15.8215" fill="#C4C4C4"/>
</g>
</svg>
