<svg width="1440" height="509" viewBox="0 0 1440 509" fill="none" xmlns="http://www.w3.org/2000/svg">
<path d="M537.157 408.771H399V477H1440V0H1354.45L1341.2 23.9561H1155.25L1123.52 47.9123L1134.37 65.5003V129.181H1067.3L1040.39 153.137V256.543H866.888L852.429 286.867V332.96H682.544V391.182L671.299 383.905H548.001L537.157 408.771Z" fill="#F2E0AB"/>
<path d="M9.17805 138.795H0V477H806V345.894H796.822V213.952L791.816 209.777V151.322L760.944 128.775L734.244 154.662V209.777L668.329 132.115L586.561 218.962V209.777H520.646V218.962L526.487 223.138V237.334H511.468V232.324H463.075V191.405L450.559 176.374L436.375 187.23L424.694 176.374L413.012 187.23L403 176.374L394.656 187.23L385.478 168.858H358.778V114.578H290.36V104.557L280.348 89.5261H261.157L252.814 104.557L227.783 89.5261H166.874L146.849 97.8768L118.48 77L106.799 86.1858L90.1118 97.8768H61.7433L42.5528 114.578H17.5217L9.17805 127.939V138.795Z" fill="#F2E0AB"/>
<g opacity="0.7">
<rect x="87.1349" y="227.065" width="135.546" height="277.467" fill="#F7D778" stroke="#EDECEC" stroke-width="7.79269"/>
<rect x="115.586" y="248.199" width="22.9058" height="47.7007" fill="#1B6BB0"/>
<line x1="127.274" y1="248.199" x2="127.274" y2="295.9" stroke="#EDECEC" stroke-width="2.12528"/>
<line x1="115.586" y1="259.889" x2="138.492" y2="259.889" stroke="#EDECEC" stroke-width="0.708427"/>
<line x1="115.586" y1="272.404" x2="138.492" y2="272.404" stroke="#EDECEC" stroke-width="0.708427"/>
<line x1="115.586" y1="285.392" x2="138.492" y2="285.392" stroke="#EDECEC" stroke-width="0.708427"/>
<rect x="113.106" y="245.484" width="28.3371" height="53.3682" stroke="#BEC1D4" stroke-width="4.01442"/>
<line x1="104.012" y1="302.866" x2="151.24" y2="302.866" stroke="#C8BCAE" stroke-width="5.90355"/>
<rect x="174.149" y="248.909" width="22.9058" height="47.7007" fill="#1B6BB0"/>
<line x1="185.836" y1="248.909" x2="185.836" y2="296.61" stroke="#EDECEC" stroke-width="2.12528"/>
<line x1="174.149" y1="260.598" x2="197.054" y2="260.598" stroke="#EDECEC" stroke-width="0.708427"/>
<line x1="174.149" y1="273.114" x2="197.054" y2="273.114" stroke="#EDECEC" stroke-width="0.708427"/>
<line x1="174.149" y1="286.101" x2="197.054" y2="286.101" stroke="#EDECEC" stroke-width="0.708427"/>
<rect x="171.669" y="246.193" width="28.3371" height="53.3682" stroke="#BEC1D4" stroke-width="4.01442"/>
<line x1="162.578" y1="303.575" x2="209.807" y2="303.575" stroke="#C8BCAE" stroke-width="5.90355"/>
<rect x="115.117" y="314.556" width="22.9058" height="47.7007" fill="#1B6BB0"/>
<line x1="126.804" y1="314.556" x2="126.804" y2="362.256" stroke="#EDECEC" stroke-width="2.12528"/>
<line x1="115.117" y1="326.245" x2="138.023" y2="326.245" stroke="#EDECEC" stroke-width="0.708427"/>
<line x1="115.117" y1="338.761" x2="138.023" y2="338.761" stroke="#EDECEC" stroke-width="0.708427"/>
<line x1="115.117" y1="351.749" x2="138.023" y2="351.749" stroke="#EDECEC" stroke-width="0.708427"/>
<rect x="112.637" y="311.84" width="28.3371" height="53.3682" stroke="#BEC1D4" stroke-width="4.01442"/>
<line x1="103.544" y1="369.223" x2="150.772" y2="369.223" stroke="#C8BCAE" stroke-width="5.90355"/>
<rect x="172.732" y="315.264" width="22.9058" height="47.7007" fill="#1B6BB0"/>
<line x1="184.422" y1="315.264" x2="184.422" y2="362.965" stroke="#EDECEC" stroke-width="2.12528"/>
<line x1="172.732" y1="326.953" x2="195.637" y2="326.953" stroke="#EDECEC" stroke-width="0.708427"/>
<line x1="172.732" y1="339.469" x2="195.637" y2="339.469" stroke="#EDECEC" stroke-width="0.708427"/>
<line x1="172.732" y1="352.457" x2="195.637" y2="352.457" stroke="#EDECEC" stroke-width="0.708427"/>
<rect x="170.255" y="312.549" width="28.3371" height="53.3682" stroke="#BEC1D4" stroke-width="4.01442"/>
<line x1="161.164" y1="369.931" x2="208.392" y2="369.931" stroke="#C8BCAE" stroke-width="5.90355"/>
<rect x="114.172" y="386.816" width="22.9058" height="47.7007" fill="#1B6BB0"/>
<line x1="125.86" y1="386.816" x2="125.86" y2="434.517" stroke="#EDECEC" stroke-width="2.12528"/>
<line x1="114.172" y1="398.505" x2="137.078" y2="398.505" stroke="#EDECEC" stroke-width="0.708427"/>
<line x1="114.172" y1="411.021" x2="137.078" y2="411.021" stroke="#EDECEC" stroke-width="0.708427"/>
<line x1="114.172" y1="424.008" x2="137.078" y2="424.008" stroke="#EDECEC" stroke-width="0.708427"/>
<rect x="111.692" y="384.1" width="28.3371" height="53.3682" stroke="#BEC1D4" stroke-width="4.01442"/>
<line x1="102.598" y1="441.482" x2="149.826" y2="441.482" stroke="#C8BCAE" stroke-width="5.90355"/>
<rect x="171.312" y="387.523" width="22.9058" height="47.7007" fill="#1B6BB0"/>
<line x1="182.999" y1="387.523" x2="182.999" y2="435.224" stroke="#EDECEC" stroke-width="2.12528"/>
<line x1="171.312" y1="399.213" x2="194.218" y2="399.213" stroke="#EDECEC" stroke-width="0.708427"/>
<line x1="171.312" y1="411.728" x2="194.218" y2="411.728" stroke="#EDECEC" stroke-width="0.708427"/>
<line x1="171.312" y1="424.716" x2="194.218" y2="424.716" stroke="#EDECEC" stroke-width="0.708427"/>
<rect x="168.832" y="384.808" width="28.3371" height="53.3682" stroke="#BEC1D4" stroke-width="4.01442"/>
<line x1="159.745" y1="442.191" x2="206.974" y2="442.191" stroke="#C8BCAE" stroke-width="5.90355"/>
<rect x="83" y="206.639" width="143.338" height="15.8215" fill="#C4C4C4"/>
</g>
<g opacity="0.7">
<rect x="366.455" y="223.016" width="135.546" height="277.467" fill="#FBD4CF" stroke="#EDECEC" stroke-width="7.79269"/>
<rect x="394.907" y="244.151" width="22.9058" height="47.7007" fill="#1B6BB0"/>
<line x1="406.594" y1="244.151" x2="406.594" y2="291.852" stroke="#EDECEC" stroke-width="2.12528"/>
<line x1="394.907" y1="255.84" x2="417.813" y2="255.84" stroke="#EDECEC" stroke-width="0.708427"/>
<line x1="394.907" y1="268.356" x2="417.813" y2="268.356" stroke="#EDECEC" stroke-width="0.708427"/>
<line x1="394.907" y1="281.343" x2="417.813" y2="281.343" stroke="#EDECEC" stroke-width="0.708427"/>
<rect x="392.427" y="241.435" width="28.3371" height="53.3682" stroke="#BEC1D4" stroke-width="4.01442"/>
<line x1="383.336" y1="298.818" x2="430.565" y2="298.818" stroke="#C8BCAE" stroke-width="5.90355"/>
<rect x="453.465" y="244.859" width="22.9058" height="47.7007" fill="#1B6BB0"/>
<line x1="465.152" y1="244.859" x2="465.152" y2="292.559" stroke="#EDECEC" stroke-width="2.12528"/>
<line x1="453.465" y1="256.548" x2="476.37" y2="256.548" stroke="#EDECEC" stroke-width="0.708427"/>
<line x1="453.465" y1="269.064" x2="476.37" y2="269.064" stroke="#EDECEC" stroke-width="0.708427"/>
<line x1="453.465" y1="282.051" x2="476.37" y2="282.051" stroke="#EDECEC" stroke-width="0.708427"/>
<rect x="450.985" y="242.143" width="28.3371" height="53.3682" stroke="#BEC1D4" stroke-width="4.01442"/>
<line x1="441.898" y1="299.526" x2="489.127" y2="299.526" stroke="#C8BCAE" stroke-width="5.90355"/>
<rect x="394.437" y="310.507" width="22.9058" height="47.7007" fill="#1B6BB0"/>
<line x1="406.125" y1="310.507" x2="406.125" y2="358.208" stroke="#EDECEC" stroke-width="2.12528"/>
<line x1="394.437" y1="322.196" x2="417.343" y2="322.196" stroke="#EDECEC" stroke-width="0.708427"/>
<line x1="394.437" y1="334.712" x2="417.343" y2="334.712" stroke="#EDECEC" stroke-width="0.708427"/>
<line x1="394.437" y1="347.7" x2="417.343" y2="347.7" stroke="#EDECEC" stroke-width="0.708427"/>
<rect x="391.957" y="307.791" width="28.3371" height="53.3682" stroke="#BEC1D4" stroke-width="4.01442"/>
<line x1="382.866" y1="365.174" x2="430.095" y2="365.174" stroke="#C8BCAE" stroke-width="5.90355"/>
<rect x="452.051" y="311.215" width="22.9058" height="47.7007" fill="#1B6BB0"/>
<line x1="463.745" y1="311.215" x2="463.745" y2="358.916" stroke="#EDECEC" stroke-width="2.12528"/>
<line x1="452.051" y1="322.905" x2="474.957" y2="322.905" stroke="#EDECEC" stroke-width="0.708427"/>
<line x1="452.051" y1="335.42" x2="474.957" y2="335.42" stroke="#EDECEC" stroke-width="0.708427"/>
<line x1="452.051" y1="348.408" x2="474.957" y2="348.408" stroke="#EDECEC" stroke-width="0.708427"/>
<rect x="449.575" y="308.5" width="28.3371" height="53.3682" stroke="#BEC1D4" stroke-width="4.01442"/>
<line x1="440.484" y1="365.882" x2="487.713" y2="365.882" stroke="#C8BCAE" stroke-width="5.90355"/>
<rect x="393.49" y="382.767" width="22.9058" height="47.7007" fill="#1B6BB0"/>
<line x1="405.177" y1="382.767" x2="405.177" y2="430.468" stroke="#EDECEC" stroke-width="2.12528"/>
<line x1="393.49" y1="394.456" x2="416.396" y2="394.456" stroke="#EDECEC" stroke-width="0.708427"/>
<line x1="393.49" y1="406.971" x2="416.396" y2="406.971" stroke="#EDECEC" stroke-width="0.708427"/>
<line x1="393.49" y1="419.959" x2="416.396" y2="419.959" stroke="#EDECEC" stroke-width="0.708427"/>
<rect x="391.009" y="380.051" width="28.3371" height="53.3682" stroke="#BEC1D4" stroke-width="4.01442"/>
<line x1="381.919" y1="437.433" x2="429.147" y2="437.433" stroke="#C8BCAE" stroke-width="5.90355"/>
<rect x="450.638" y="383.474" width="22.9058" height="47.7007" fill="#1B6BB0"/>
<line x1="462.325" y1="383.474" x2="462.325" y2="431.175" stroke="#EDECEC" stroke-width="2.12528"/>
<line x1="450.638" y1="395.163" x2="473.544" y2="395.163" stroke="#EDECEC" stroke-width="0.708427"/>
<line x1="450.638" y1="407.679" x2="473.544" y2="407.679" stroke="#EDECEC" stroke-width="0.708427"/>
<line x1="450.638" y1="420.667" x2="473.544" y2="420.667" stroke="#EDECEC" stroke-width="0.708427"/>
<rect x="448.158" y="380.759" width="28.3371" height="53.3682" stroke="#BEC1D4" stroke-width="4.01442"/>
<line x1="439.067" y1="438.142" x2="486.296" y2="438.142" stroke="#C8BCAE" stroke-width="5.90355"/>
<rect x="362.32" y="202.59" width="143.338" height="15.8215" fill="#C4C4C4"/>
</g>
<g opacity="0.7">
<rect x="888.479" y="203.8" width="135.546" height="277.467" fill="#F7D778" stroke="#EDECEC" stroke-width="7.79269"/>
<rect x="916.93" y="224.935" width="22.9058" height="47.7007" fill="#1B6BB0"/>
<line x1="928.618" y1="224.935" x2="928.618" y2="272.636" stroke="#EDECEC" stroke-width="2.12528"/>
<line x1="916.93" y1="236.624" x2="939.836" y2="236.624" stroke="#EDECEC" stroke-width="0.708427"/>
<line x1="916.93" y1="249.14" x2="939.836" y2="249.14" stroke="#EDECEC" stroke-width="0.708427"/>
<line x1="916.93" y1="262.128" x2="939.836" y2="262.128" stroke="#EDECEC" stroke-width="0.708427"/>
<rect x="914.45" y="222.219" width="28.3371" height="53.3682" stroke="#BEC1D4" stroke-width="4.01442"/>
<line x1="905.355" y1="279.602" x2="952.584" y2="279.602" stroke="#C8BCAE" stroke-width="5.90355"/>
<rect x="975.492" y="225.644" width="22.9058" height="47.7007" fill="#1B6BB0"/>
<line x1="987.18" y1="225.644" x2="987.18" y2="273.345" stroke="#EDECEC" stroke-width="2.12528"/>
<line x1="975.492" y1="237.333" x2="998.398" y2="237.333" stroke="#EDECEC" stroke-width="0.708427"/>
<line x1="975.492" y1="249.849" x2="998.398" y2="249.849" stroke="#EDECEC" stroke-width="0.708427"/>
<line x1="975.492" y1="262.836" x2="998.398" y2="262.836" stroke="#EDECEC" stroke-width="0.708427"/>
<rect x="973.012" y="222.928" width="28.3371" height="53.3682" stroke="#BEC1D4" stroke-width="4.01442"/>
<line x1="963.922" y1="280.311" x2="1011.15" y2="280.311" stroke="#C8BCAE" stroke-width="5.90355"/>
<rect x="916.461" y="291.291" width="22.9058" height="47.7007" fill="#1B6BB0"/>
<line x1="928.148" y1="291.291" x2="928.148" y2="338.991" stroke="#EDECEC" stroke-width="2.12528"/>
<line x1="916.461" y1="302.98" x2="939.367" y2="302.98" stroke="#EDECEC" stroke-width="0.708427"/>
<line x1="916.461" y1="315.495" x2="939.367" y2="315.495" stroke="#EDECEC" stroke-width="0.708427"/>
<line x1="916.461" y1="328.483" x2="939.367" y2="328.483" stroke="#EDECEC" stroke-width="0.708427"/>
<rect x="913.981" y="288.575" width="28.3371" height="53.3682" stroke="#BEC1D4" stroke-width="4.01442"/>
<line x1="904.888" y1="345.958" x2="952.116" y2="345.958" stroke="#C8BCAE" stroke-width="5.90355"/>
<rect x="974.074" y="292" width="22.9058" height="47.7007" fill="#1B6BB0"/>
<line x1="985.765" y1="292" x2="985.765" y2="339.7" stroke="#EDECEC" stroke-width="2.12528"/>
<line x1="974.074" y1="303.689" x2="996.98" y2="303.689" stroke="#EDECEC" stroke-width="0.708427"/>
<line x1="974.074" y1="316.204" x2="996.98" y2="316.204" stroke="#EDECEC" stroke-width="0.708427"/>
<line x1="974.074" y1="329.193" x2="996.98" y2="329.193" stroke="#EDECEC" stroke-width="0.708427"/>
<rect x="971.598" y="289.284" width="28.3371" height="53.3682" stroke="#BEC1D4" stroke-width="4.01442"/>
<line x1="962.508" y1="346.666" x2="1009.74" y2="346.666" stroke="#C8BCAE" stroke-width="5.90355"/>
<rect x="915.516" y="363.551" width="22.9058" height="47.7007" fill="#1B6BB0"/>
<line x1="927.203" y1="363.551" x2="927.203" y2="411.252" stroke="#EDECEC" stroke-width="2.12528"/>
<line x1="915.516" y1="375.24" x2="938.422" y2="375.24" stroke="#EDECEC" stroke-width="0.708427"/>
<line x1="915.516" y1="387.756" x2="938.422" y2="387.756" stroke="#EDECEC" stroke-width="0.708427"/>
<line x1="915.516" y1="400.744" x2="938.422" y2="400.744" stroke="#EDECEC" stroke-width="0.708427"/>
<rect x="913.036" y="360.836" width="28.3371" height="53.3682" stroke="#BEC1D4" stroke-width="4.01442"/>
<line x1="903.941" y1="418.218" x2="951.17" y2="418.218" stroke="#C8BCAE" stroke-width="5.90355"/>
<rect x="972.656" y="364.258" width="22.9058" height="47.7007" fill="#1B6BB0"/>
<line x1="984.343" y1="364.258" x2="984.343" y2="411.959" stroke="#EDECEC" stroke-width="2.12528"/>
<line x1="972.656" y1="375.948" x2="995.562" y2="375.948" stroke="#EDECEC" stroke-width="0.708427"/>
<line x1="972.656" y1="388.463" x2="995.562" y2="388.463" stroke="#EDECEC" stroke-width="0.708427"/>
<line x1="972.656" y1="401.451" x2="995.562" y2="401.451" stroke="#EDECEC" stroke-width="0.708427"/>
<rect x="970.176" y="361.543" width="28.3371" height="53.3682" stroke="#BEC1D4" stroke-width="4.01442"/>
<line x1="961.089" y1="418.926" x2="1008.32" y2="418.926" stroke="#C8BCAE" stroke-width="5.90355"/>
<rect x="884.344" y="183.374" width="143.338" height="15.8215" fill="#C4C4C4"/>
</g>
<g opacity="0.7">
<rect x="222.747" y="195.691" width="135.546" height="277.467" fill="#78BAF7" stroke="#EDECEC" stroke-width="7.79269"/>
<rect x="251.2" y="216.825" width="22.9058" height="47.7007" fill="#1B6BB0"/>
<line x1="262.887" y1="216.825" x2="262.887" y2="264.526" stroke="#EDECEC" stroke-width="2.12528"/>
<line x1="251.2" y1="228.515" x2="274.106" y2="228.515" stroke="#EDECEC" stroke-width="0.708427"/>
<line x1="251.2" y1="241.03" x2="274.106" y2="241.03" stroke="#EDECEC" stroke-width="0.708427"/>
<line x1="251.2" y1="254.018" x2="274.106" y2="254.018" stroke="#EDECEC" stroke-width="0.708427"/>
<rect x="248.719" y="214.11" width="28.3371" height="53.3682" stroke="#BEC1D4" stroke-width="4.01442"/>
<line x1="239.629" y1="271.492" x2="286.857" y2="271.492" stroke="#C8BCAE" stroke-width="5.90355"/>
<rect x="309.762" y="217.534" width="22.9058" height="47.7007" fill="#1B6BB0"/>
<line x1="321.45" y1="217.534" x2="321.45" y2="265.235" stroke="#EDECEC" stroke-width="2.12528"/>
<line x1="309.762" y1="229.224" x2="332.668" y2="229.224" stroke="#EDECEC" stroke-width="0.708427"/>
<line x1="309.762" y1="241.74" x2="332.668" y2="241.74" stroke="#EDECEC" stroke-width="0.708427"/>
<line x1="309.762" y1="254.727" x2="332.668" y2="254.727" stroke="#EDECEC" stroke-width="0.708427"/>
<rect x="307.282" y="214.819" width="28.3371" height="53.3682" stroke="#BEC1D4" stroke-width="4.01442"/>
<line x1="298.191" y1="272.201" x2="345.42" y2="272.201" stroke="#C8BCAE" stroke-width="5.90355"/>
<rect x="250.731" y="283.182" width="22.9058" height="47.7007" fill="#1B6BB0"/>
<line x1="262.418" y1="283.182" x2="262.418" y2="330.883" stroke="#EDECEC" stroke-width="2.12528"/>
<line x1="250.731" y1="294.871" x2="273.637" y2="294.871" stroke="#EDECEC" stroke-width="0.708427"/>
<line x1="250.731" y1="307.387" x2="273.637" y2="307.387" stroke="#EDECEC" stroke-width="0.708427"/>
<line x1="250.731" y1="320.375" x2="273.637" y2="320.375" stroke="#EDECEC" stroke-width="0.708427"/>
<rect x="248.251" y="280.466" width="28.3371" height="53.3682" stroke="#BEC1D4" stroke-width="4.01442"/>
<line x1="239.16" y1="337.849" x2="286.389" y2="337.849" stroke="#C8BCAE" stroke-width="5.90355"/>
<rect x="308.348" y="283.891" width="22.9058" height="47.7007" fill="#1B6BB0"/>
<line x1="320.036" y1="283.891" x2="320.036" y2="331.591" stroke="#EDECEC" stroke-width="2.12528"/>
<line x1="308.348" y1="295.579" x2="331.254" y2="295.579" stroke="#EDECEC" stroke-width="0.708427"/>
<line x1="308.348" y1="308.095" x2="331.254" y2="308.095" stroke="#EDECEC" stroke-width="0.708427"/>
<line x1="308.348" y1="321.082" x2="331.254" y2="321.082" stroke="#EDECEC" stroke-width="0.708427"/>
<rect x="305.868" y="281.174" width="28.3371" height="53.3682" stroke="#BEC1D4" stroke-width="4.01442"/>
<line x1="296.777" y1="338.557" x2="344.006" y2="338.557" stroke="#C8BCAE" stroke-width="5.90355"/>
<rect x="249.783" y="355.442" width="22.9058" height="47.7007" fill="#1B6BB0"/>
<line x1="261.47" y1="355.442" x2="261.47" y2="403.143" stroke="#EDECEC" stroke-width="2.12528"/>
<line x1="249.783" y1="367.131" x2="272.689" y2="367.131" stroke="#EDECEC" stroke-width="0.708427"/>
<line x1="249.783" y1="379.646" x2="272.689" y2="379.646" stroke="#EDECEC" stroke-width="0.708427"/>
<line x1="249.783" y1="392.634" x2="272.689" y2="392.634" stroke="#EDECEC" stroke-width="0.708427"/>
<rect x="247.302" y="352.726" width="28.3371" height="53.3682" stroke="#BEC1D4" stroke-width="4.01442"/>
<line x1="238.211" y1="410.108" x2="285.44" y2="410.108" stroke="#C8BCAE" stroke-width="5.90355"/>
<rect x="306.931" y="356.15" width="22.9058" height="47.7007" fill="#1B6BB0"/>
<line x1="318.618" y1="356.15" x2="318.618" y2="403.85" stroke="#EDECEC" stroke-width="2.12528"/>
<line x1="306.931" y1="367.839" x2="329.837" y2="367.839" stroke="#EDECEC" stroke-width="0.708427"/>
<line x1="306.931" y1="380.354" x2="329.837" y2="380.354" stroke="#EDECEC" stroke-width="0.708427"/>
<line x1="306.931" y1="393.342" x2="329.837" y2="393.342" stroke="#EDECEC" stroke-width="0.708427"/>
<rect x="304.45" y="353.434" width="28.3371" height="53.3682" stroke="#BEC1D4" stroke-width="4.01442"/>
<line x1="295.359" y1="410.817" x2="342.588" y2="410.817" stroke="#C8BCAE" stroke-width="5.90355"/>
<rect x="218.613" y="175.265" width="143.338" height="15.8215" fill="#C4C4C4"/>
</g>
<g opacity="0.7">
<rect x="1024.09" y="172.426" width="135.546" height="277.467" fill="#78BAF7" stroke="#EDECEC" stroke-width="7.79269"/>
<rect x="1052.54" y="193.561" width="22.9058" height="47.7007" fill="#1B6BB0"/>
<line x1="1064.23" y1="193.561" x2="1064.23" y2="241.262" stroke="#EDECEC" stroke-width="2.12528"/>
<line x1="1052.54" y1="205.25" x2="1075.45" y2="205.25" stroke="#EDECEC" stroke-width="0.708427"/>
<line x1="1052.54" y1="217.766" x2="1075.45" y2="217.766" stroke="#EDECEC" stroke-width="0.708427"/>
<line x1="1052.54" y1="230.754" x2="1075.45" y2="230.754" stroke="#EDECEC" stroke-width="0.708427"/>
<rect x="1050.06" y="190.845" width="28.3371" height="53.3682" stroke="#BEC1D4" stroke-width="4.01442"/>
<line x1="1040.97" y1="248.228" x2="1088.2" y2="248.228" stroke="#C8BCAE" stroke-width="5.90355"/>
<rect x="1111.11" y="194.27" width="22.9058" height="47.7007" fill="#1B6BB0"/>
<line x1="1122.79" y1="194.27" x2="1122.79" y2="241.971" stroke="#EDECEC" stroke-width="2.12528"/>
<line x1="1111.11" y1="205.959" x2="1134.01" y2="205.959" stroke="#EDECEC" stroke-width="0.708427"/>
<line x1="1111.11" y1="218.475" x2="1134.01" y2="218.475" stroke="#EDECEC" stroke-width="0.708427"/>
<line x1="1111.11" y1="231.462" x2="1134.01" y2="231.462" stroke="#EDECEC" stroke-width="0.708427"/>
<rect x="1108.63" y="191.554" width="28.3371" height="53.3682" stroke="#BEC1D4" stroke-width="4.01442"/>
<line x1="1099.54" y1="248.937" x2="1146.76" y2="248.937" stroke="#C8BCAE" stroke-width="5.90355"/>
<rect x="1052.07" y="259.917" width="22.9058" height="47.7007" fill="#1B6BB0"/>
<line x1="1063.76" y1="259.917" x2="1063.76" y2="307.618" stroke="#EDECEC" stroke-width="2.12528"/>
<line x1="1052.07" y1="271.607" x2="1074.98" y2="271.607" stroke="#EDECEC" stroke-width="0.708427"/>
<line x1="1052.07" y1="284.122" x2="1074.98" y2="284.122" stroke="#EDECEC" stroke-width="0.708427"/>
<line x1="1052.07" y1="297.11" x2="1074.98" y2="297.11" stroke="#EDECEC" stroke-width="0.708427"/>
<rect x="1049.59" y="257.202" width="28.3371" height="53.3682" stroke="#BEC1D4" stroke-width="4.01442"/>
<line x1="1040.5" y1="314.584" x2="1087.73" y2="314.584" stroke="#C8BCAE" stroke-width="5.90355"/>
<rect x="1109.69" y="260.627" width="22.9058" height="47.7007" fill="#1B6BB0"/>
<line x1="1121.38" y1="260.627" x2="1121.38" y2="308.328" stroke="#EDECEC" stroke-width="2.12528"/>
<line x1="1109.69" y1="272.316" x2="1132.59" y2="272.316" stroke="#EDECEC" stroke-width="0.708427"/>
<line x1="1109.69" y1="284.831" x2="1132.59" y2="284.831" stroke="#EDECEC" stroke-width="0.708427"/>
<line x1="1109.69" y1="297.819" x2="1132.59" y2="297.819" stroke="#EDECEC" stroke-width="0.708427"/>
<rect x="1107.21" y="257.911" width="28.3371" height="53.3682" stroke="#BEC1D4" stroke-width="4.01442"/>
<line x1="1098.12" y1="315.293" x2="1145.35" y2="315.293" stroke="#C8BCAE" stroke-width="5.90355"/>
<rect x="1051.13" y="332.177" width="22.9058" height="47.7007" fill="#1B6BB0"/>
<line x1="1062.81" y1="332.177" x2="1062.81" y2="379.878" stroke="#EDECEC" stroke-width="2.12528"/>
<line x1="1051.13" y1="343.866" x2="1074.03" y2="343.866" stroke="#EDECEC" stroke-width="0.708427"/>
<line x1="1051.13" y1="356.382" x2="1074.03" y2="356.382" stroke="#EDECEC" stroke-width="0.708427"/>
<line x1="1051.13" y1="369.37" x2="1074.03" y2="369.37" stroke="#EDECEC" stroke-width="0.708427"/>
<rect x="1048.65" y="329.461" width="28.3371" height="53.3682" stroke="#BEC1D4" stroke-width="4.01442"/>
<line x1="1039.56" y1="386.844" x2="1086.78" y2="386.844" stroke="#C8BCAE" stroke-width="5.90355"/>
<rect x="1108.28" y="332.885" width="22.9058" height="47.7007" fill="#1B6BB0"/>
<line x1="1119.96" y1="332.885" x2="1119.96" y2="380.586" stroke="#EDECEC" stroke-width="2.12528"/>
<line x1="1108.28" y1="344.574" x2="1131.18" y2="344.574" stroke="#EDECEC" stroke-width="0.708427"/>
<line x1="1108.28" y1="357.089" x2="1131.18" y2="357.089" stroke="#EDECEC" stroke-width="0.708427"/>
<line x1="1108.28" y1="370.077" x2="1131.18" y2="370.077" stroke="#EDECEC" stroke-width="0.708427"/>
<rect x="1105.79" y="330.169" width="28.3371" height="53.3682" stroke="#BEC1D4" stroke-width="4.01442"/>
<line x1="1096.7" y1="387.552" x2="1143.93" y2="387.552" stroke="#C8BCAE" stroke-width="5.90355"/>
<rect x="1019.96" y="152" width="143.338" height="15.8215" fill="#C4C4C4"/>
</g>
<g opacity="0.7">
<rect x="1167.8" y="199.751" width="135.546" height="277.467" fill="#FBD4CF" stroke="#EDECEC" stroke-width="7.79269"/>
<rect x="1196.25" y="220.886" width="22.9058" height="47.7007" fill="#1B6BB0"/>
<line x1="1207.94" y1="220.886" x2="1207.94" y2="268.587" stroke="#EDECEC" stroke-width="2.12528"/>
<line x1="1196.25" y1="232.575" x2="1219.16" y2="232.575" stroke="#EDECEC" stroke-width="0.708427"/>
<line x1="1196.25" y1="245.091" x2="1219.16" y2="245.091" stroke="#EDECEC" stroke-width="0.708427"/>
<line x1="1196.25" y1="258.079" x2="1219.16" y2="258.079" stroke="#EDECEC" stroke-width="0.708427"/>
<rect x="1193.77" y="218.171" width="28.3371" height="53.3682" stroke="#BEC1D4" stroke-width="4.01442"/>
<line x1="1184.68" y1="275.553" x2="1231.91" y2="275.553" stroke="#C8BCAE" stroke-width="5.90355"/>
<rect x="1254.81" y="221.594" width="22.9058" height="47.7007" fill="#1B6BB0"/>
<line x1="1266.5" y1="221.594" x2="1266.5" y2="269.295" stroke="#EDECEC" stroke-width="2.12528"/>
<line x1="1254.81" y1="233.283" x2="1277.71" y2="233.283" stroke="#EDECEC" stroke-width="0.708427"/>
<line x1="1254.81" y1="245.799" x2="1277.71" y2="245.799" stroke="#EDECEC" stroke-width="0.708427"/>
<line x1="1254.81" y1="258.787" x2="1277.71" y2="258.787" stroke="#EDECEC" stroke-width="0.708427"/>
<rect x="1252.33" y="218.879" width="28.3371" height="53.3682" stroke="#BEC1D4" stroke-width="4.01442"/>
<line x1="1243.24" y1="276.262" x2="1290.47" y2="276.262" stroke="#C8BCAE" stroke-width="5.90355"/>
<rect x="1195.78" y="287.243" width="22.9058" height="47.7007" fill="#1B6BB0"/>
<line x1="1207.47" y1="287.243" x2="1207.47" y2="334.943" stroke="#EDECEC" stroke-width="2.12528"/>
<line x1="1195.78" y1="298.932" x2="1218.69" y2="298.932" stroke="#EDECEC" stroke-width="0.708427"/>
<line x1="1195.78" y1="311.447" x2="1218.69" y2="311.447" stroke="#EDECEC" stroke-width="0.708427"/>
<line x1="1195.78" y1="324.435" x2="1218.69" y2="324.435" stroke="#EDECEC" stroke-width="0.708427"/>
<rect x="1193.3" y="284.527" width="28.3371" height="53.3682" stroke="#BEC1D4" stroke-width="4.01442"/>
<line x1="1184.21" y1="341.909" x2="1231.44" y2="341.909" stroke="#C8BCAE" stroke-width="5.90355"/>
<rect x="1253.39" y="287.951" width="22.9058" height="47.7007" fill="#1B6BB0"/>
<line x1="1265.09" y1="287.952" x2="1265.09" y2="335.652" stroke="#EDECEC" stroke-width="2.12528"/>
<line x1="1253.39" y1="299.64" x2="1276.3" y2="299.64" stroke="#EDECEC" stroke-width="0.708427"/>
<line x1="1253.39" y1="312.157" x2="1276.3" y2="312.157" stroke="#EDECEC" stroke-width="0.708427"/>
<line x1="1253.39" y1="325.144" x2="1276.3" y2="325.144" stroke="#EDECEC" stroke-width="0.708427"/>
<rect x="1250.92" y="285.236" width="28.3371" height="53.3682" stroke="#BEC1D4" stroke-width="4.01442"/>
<line x1="1241.83" y1="342.618" x2="1289.06" y2="342.618" stroke="#C8BCAE" stroke-width="5.90355"/>
<rect x="1194.83" y="359.503" width="22.9058" height="47.7007" fill="#1B6BB0"/>
<line x1="1206.52" y1="359.503" x2="1206.52" y2="407.203" stroke="#EDECEC" stroke-width="2.12528"/>
<line x1="1194.83" y1="371.192" x2="1217.74" y2="371.192" stroke="#EDECEC" stroke-width="0.708427"/>
<line x1="1194.83" y1="383.707" x2="1217.74" y2="383.707" stroke="#EDECEC" stroke-width="0.708427"/>
<line x1="1194.83" y1="396.695" x2="1217.74" y2="396.695" stroke="#EDECEC" stroke-width="0.708427"/>
<rect x="1192.35" y="356.787" width="28.3371" height="53.3682" stroke="#BEC1D4" stroke-width="4.01442"/>
<line x1="1183.26" y1="414.169" x2="1230.49" y2="414.169" stroke="#C8BCAE" stroke-width="5.90355"/>
<rect x="1251.98" y="360.211" width="22.9058" height="47.7007" fill="#1B6BB0"/>
<line x1="1263.67" y1="360.21" x2="1263.67" y2="407.911" stroke="#EDECEC" stroke-width="2.12528"/>
<line x1="1251.98" y1="371.899" x2="1274.89" y2="371.899" stroke="#EDECEC" stroke-width="0.708427"/>
<line x1="1251.98" y1="384.415" x2="1274.89" y2="384.415" stroke="#EDECEC" stroke-width="0.708427"/>
<line x1="1251.98" y1="397.403" x2="1274.89" y2="397.403" stroke="#EDECEC" stroke-width="0.708427"/>
<rect x="1249.5" y="357.494" width="28.3371" height="53.3682" stroke="#BEC1D4" stroke-width="4.01442"/>
<line x1="1240.41" y1="414.877" x2="1287.64" y2="414.877" stroke="#C8BCAE" stroke-width="5.90355"/>
<rect x="1163.66" y="179.325" width="143.338" height="15.8215" fill="#C4C4C4"/>
</g>
</svg>
