<svg enable-background="new 0 0 595.3 595.3" viewBox="0 0 595.3 595.3" xmlns="http://www.w3.org/2000/svg"><g fill="#fff"><path d="m497.7 266.9c-1.5 0-2.7 1.2-2.7 2.7.1 24.3-10.1 29.8-19 34.7-5.9 3.2-16.8 4.6-29.4 6.3-6.2.8-12.7 1.7-19.2 2.8-1.9-13.7-2.4-24.1 4.8-42.8.5-1.4-.2-2.9-1.5-3.5-1.4-.5-2.9.1-3.5 1.5-7.8 20-7 31.5-5.1 45.7-18.3 3.7-35.8 10.2-44.4 25-8.8 15.1-9.3 29.9-9.8 45.5-.3 8.6-.5 17.3-2.3 26.4-7.6-4.1-14.5-10-19.7-17.3-17.7-24.5-18.6-42.1-18.6-71.2 0-29.9-10.8-49.2-31.2-55.7-1.4-.5-2.9.3-3.4 1.7s.3 2.9 1.7 3.4c18.3 5.9 27.6 22.9 27.6 50.6 0 30.1.9 48.4 19.6 74.3 6 8.3 14 15 22.9 19.5-.9 3.6-2.1 7.2-3.6 10.8-10.4 25.2-22 33.3-47.8 33.3-31.5 0-48.4-29-52.1-48.5-.9-4.9-1.7-11.5-2.4-18.5-1.3-11.4-2.7-24.3-5.4-32.7-5.4-17.2-19.9-21.9-34-26.4-1.8-.6-3.6-1.2-5.4-1.8 4.1-8.1 9.9-15.7 15.9-23.4 2.1-2.7 4.2-5.4 6.3-8.2 8.6-11.6 12.9-22.5 12.8-32.2 0-1.5-1.2-2.6-2.7-2.6-1.5 0-2.7 1.2-2.6 2.7.1 8.5-3.8 18.3-11.7 29-2 2.7-4.1 5.4-6.2 8.1-6.2 7.9-12.3 16-16.7 24.9-4-1.5-7.8-3.3-11.4-5.6l-1.1-.7c-6.4-3.9-26-15.9-21-54.8.2-1.5-.9-2.8-2.3-3-1.5-.2-2.8.9-3 2.3-3.6 28.1 4.3 48.4 23.6 60.1l1 .6c3.9 2.5 8 4.4 12.1 6-2.3 5.8-3.7 12-3.7 18.8 0 3.1.2 6.2.4 9.3.4 5.2.7 10.1.1 15-1.9 17.1-14.1 35.7-33.7 38.2-18.4 2.4-39.3-5.4-49.8-18.4-14.3-17.8-20.1-36.8-18.3-59.9.3-3.4.6-6.7.9-10 1.9-19.9 3.7-38.6-5.4-60-.6-1.4-2.2-2-3.5-1.4-1.4.6-2 2.2-1.4 3.5 8.5 20.2 6.9 37.4 5 57.4-.3 3.3-.6 6.7-.9 10.1-2 24.6 4.2 44.8 19.4 63.7 10.2 12.7 29.2 20.8 47.4 20.8 2.5 0 4.9-.1 7.3-.5 22.4-2.9 36.3-23.8 38.4-43 .6-5.4.2-10.7-.1-15.9-.2-3-.4-6-.4-9 0-6.1 1.3-11.7 3.4-17 2 .7 4 1.3 5.9 2 13.9 4.5 25.9 8.4 30.5 22.9 2.5 7.9 3.9 20.5 5.2 31.7.8 7.1 1.5 13.8 2.5 18.9 4 21.2 22.6 52.8 57.4 52.8 31.5 0 43.2-13.4 52.8-36.6 1.5-3.6 2.6-7.1 3.6-10.6 6.5 2.7 13.4 4.1 20.2 4.3h1c13.6 0 25.3-5.4 33-15.2 11.9-15.3 12.7-35.9 11.1-50.5-1-9.6-2.2-15.4-3.5-21.5-1-4.8-2.1-9.9-3.1-17.2v-.1c6.5-1.1 13-2 19.2-2.8 13.2-1.7 24.5-3.2 31.3-6.9 9.2-5 21.9-11.9 21.8-39.4-.5-1.3-1.7-2.5-3.1-2.5zm-71.7 70.1c1.3 6 2.5 11.7 3.4 21 1.4 13.6.8 32.8-10 46.7-6.8 8.7-17.1 13.4-29.7 13.1-6.5-.1-12.9-1.6-19.1-4.2 2-9.9 2.4-19.4 2.7-28.6.5-14.9.9-29 9-43 7.5-12.9 23.5-18.9 40.5-22.4 1.1 7.5 2.1 12.6 3.2 17.4z"/><path d="m172.4 245.5c2.7 0 4.9-2.2 4.9-4.9v-42.1c0-2.7-2.2-4.9-4.9-4.9s-4.9 2.2-4.9 4.9v42.1c0 2.7 2.2 4.9 4.9 4.9z"/><path d="m232.8 212.5c-5 3.8-10.8 8.1-14.9 11.9-5.9 5.4-5.9 9.9-4.9 12.8 1.4 4 5.7 6.7 11.1 7.1 4.6.3 8.9.4 13.2.4 4.2 0 8.4-.1 13-.2 2.7-.1 4.9-2.4 4.8-5.1s-2.3-4.8-4.9-4.8h-.1c-9 .3-16.6.4-25.2-.2-1-.1-1.8-.3-2.2-.5.3-.5.8-1.2 2-2.3 3.7-3.4 9.5-7.8 14.1-11.3 4.8-3.6 7.5-5.7 9-7.2 3.5-3.6 4.8-8.3 3.3-12.3-1.4-3.7-4.7-6-9.3-6.3-4.3-.4-11.1-.1-17.2.1-2.2.1-4.3.1-5.8.2-2.7 0-4.9 2.3-4.9 5s2.2 4.9 4.9 4.9h.1c1.6 0 3.7-.1 6-.2 5.5-.2 12.3-.4 16.1-.1.4 0 .7.1.8.1-.1.3-.3 1-1.1 1.9-1 .9-4.5 3.5-7.9 6.1z"/><path d="m312 244.6c1.3 0 2.6-.1 3.9-.4 5-1 9.5-3.8 13.2-8.1 9.2-10.9 8.6-26-1.4-36.1-1.9-1.9-9.1-8.1-19.9-4.7-.7.2-17.4 6-17.3 27.9 0 6.1 2.2 11.5 6.2 15.4 3.8 3.8 9.6 6 15.3 6zm-1.3-39.9c5.1-1.6 8.5.8 10 2.3 6.4 6.5 6.8 15.8.9 22.8-1.5 1.8-4.1 4.1-7.6 4.8-4 .8-8.3-.9-10.5-3-2.1-2.1-3.2-4.9-3.2-8.4-.1-14.6 10.1-18.4 10.4-18.5z"/><path d="m371.1 244.5h.6c2.5 0 4.6-1.9 4.9-4.4l.1-1c.9-7.8 3.5-31.1 7.7-34.6.6.6 1.8 2.3 3.5 6.9l.5 1.4c1.4 4.1 3.9 11.6 10.7 11 6.6-.6 8.5-7.7 9.8-12.3.4-1.6.9-3.2 1.3-4.2.2-.5.9-1.9 1.4-2.6 2.6 2.4 6.9 14.3 8.9 35.4.2 2.7 2.7 4.6 5.4 4.4s4.7-2.6 4.4-5.4c-2.7-29.6-9.1-44.7-19-44.7-1.2 0-2.3.3-3.4.8-3.7 1.7-5.5 5.5-6.6 7.8-.9 1.8-1.4 3.9-2 5.9-.2.9-.5 2-.9 3.1-.3-.8-.6-1.7-.8-2.2l-.6-1.7c-1.5-4.1-5-13.5-12.6-13.5-11.8 0-14.9 18.9-17.6 43.5l-.1 1c-.2 2.7 1.7 5.1 4.4 5.4z"/><path d="m93.5 245.2c2.7 0 4.9-2.3 4.9-5l-.4-30.2c0-2.7 0-5.3 1.1-6.6 1-1.2 3.4-1.8 5.6-1.2 4.1 1 7.2 5.4 6.6 9.3-.4 2.9-2.7 4.9-4.6 6-5.1 3.2-4.4 7.2-3.3 10.3 4.6 12.4 17.4 17.4 22.7 18.9.5.1.9.2 1.4.2 2.1 0 4.1-1.4 4.7-3.5.8-2.6-.7-5.3-3.3-6.1-2.9-.9-12.5-4.2-15.9-12.1 4.5-3.1 7.3-7.4 8-12.2 1.4-9-5-18.1-14.1-20.3-6-1.4-12.2.5-15.5 4.7s-3.3 9.4-3.2 12.9l.4 30.2c-.1 2.5 2.1 4.7 4.9 4.7-.1 0 0 0 0 0z"/><path d="m501.7 211c-3.7-10.5-9.8-16.4-17.1-16.5-.1 0-.2 0-.3 0-7.6 0-14.2 6.6-17.6 17.6-2.7 8.8-4.1 18.4-4 27.5 0 2.7 2.2 4.9 4.9 4.9 2.7 0 4.9-2.2 4.9-5-.1-8.2 1.2-16.6 3.6-24.6 1.6-5.3 4.8-10.7 8.2-10.7h.1c3.3.1 6.3 5.2 8 10 .2.5.3.9.4 1.3h-7.9c-2.7 0-4.9 2.2-4.9 4.9s2.2 4.9 4.9 4.9h10.8c1 4.4 1.6 8.9 1.6 14.2 0 2.7 2.5 4.8 5 4.9 2.7 0 4.9-2.2 4.9-5-.1-11-2.2-19.1-5.5-28.4z"/><path d="m413.9 432.5c-3.5 1.1-10.1 5.5-10 15 0 3.3 1.3 6.2 3.7 8.4 2.2 2 5.6 3.2 8.8 3.2.7 0 1.5-.1 2.2-.2 3.6-.6 6.1-2.7 7.6-4.3 2.6-2.8 4-6.4 3.9-9.9-.1-3.6-1.8-7-4.7-9.7-1.3-1-5.3-4.2-11.5-2.5zm8.2 18.4c-.9 1-2.5 2.2-4.6 2.6-2.5.4-5.1-.5-6.4-1.7-1.2-1.1-1.8-2.6-1.9-4.4-.1-7.6 5.6-9.6 6.2-9.8 3.3-.9 5.4.6 6.2 1.3 1.8 1.7 2.9 3.7 2.9 5.9.2 2.2-.7 4.3-2.4 6.1z"/><path d="m446.8 412.1c-1.5-.2-6.7-.4-10.6 4.6-2.2 2.9-5 10.4.6 18 2 2.7 4.7 4.3 7.8 4.6.4 0 .7.1 1.1.1 3.4 0 7.1-1.6 9.5-4.1 2.5-2.6 3.4-5.7 3.7-7.9.5-3.8-.5-7.5-2.7-10.3-2.1-2.7-5.5-4.5-9.4-5zm4.7 19.6c-1.8 1.8-4.5 2.6-6.2 2.4-1.6-.2-3-1-4.1-2.5-4.5-6.1-1.1-11.1-.7-11.5 2.2-2.7 4.8-2.7 5.8-2.6 2.5.3 4.5 1.4 5.8 3.1s1.9 3.9 1.6 6.3c-.2 1.3-.8 3.2-2.2 4.8z"/><path d="m390.7 456.7c-.7.8-2.7 1.5-4.8 1.4-1.3-.1-3.2-.5-4.5-2.2-1.2-1.4-1.6-3.6-1.4-6.5.2-2.8.8-4.7 1.9-5.9 1-1.1 4.8-2.7 7.3-.6 1.1.9 2.8.8 3.8-.3s.8-2.8-.3-3.8c-4.9-4.1-11.9-2.1-14.8 1.2-2.5 2.8-3 6.5-3.2 9.1-.3 4.3.5 7.7 2.6 10.2 2 2.5 5 4 8.5 4.2h.6c3.2 0 6.4-1.2 8.3-3.1 1-1.1 1-2.8-.1-3.8s-2.8-1-3.9.1z"/><path d="m471.4 405.7c-3.8-1.1-9.9-4-14.2-6.4-1.1-.6-2.1-1.2-2.8-2.1-.4-.5-.7-1.4-.5-2 .4-1.2 2.3-3.7 4.9-4.1 2.5-.3 3.4.5 4.3 2.2.4.7.6 2.5.2 5-.2 1.5.8 2.8 2.3 3s2.8-.8 3-2.3c.3-2.5.5-5.9-.8-8.3-2.1-3.9-5.3-5.5-9.7-5-5.1.6-8.4 5-9.3 7.6-.8 2.3-.3 5 1.3 7.1 1.3 1.7 3 2.7 4.5 3.5 4.2 2.3 10.8 5.5 15.3 6.9.2.1.5.1.8.1 1.2 0 2.2-.8 2.6-1.9.3-1.3-.5-2.8-1.9-3.3z"/></g></svg>