<svg width="74" height="48" viewBox="0 0 74 48" fill="none" xmlns="http://www.w3.org/2000/svg">
<path d="M71.8152 13.0949C71.5521 13.0949 71.3416 13.3054 71.3416 13.5685C71.3592 17.8308 69.5701 18.7955 68.009 19.6549C66.9741 20.2162 65.0622 20.4618 62.8522 20.76C61.7647 20.9003 60.6245 21.0582 59.4844 21.2511C59.1512 18.8481 59.0635 17.0239 60.3264 13.7439C60.4141 13.4983 60.2913 13.2352 60.0633 13.13C59.8177 13.0423 59.5546 13.1475 59.4494 13.3931C58.0812 16.9011 58.2215 18.9182 58.5548 21.409C55.3449 22.058 52.2754 23.1981 50.7669 25.794C49.2234 28.4426 49.1357 31.0386 49.048 33.7749C48.9954 35.2833 48.9603 36.8093 48.6446 38.4055C47.3115 37.6863 46.1012 36.6515 45.1891 35.371C42.0845 31.0737 41.9266 27.9866 41.9266 22.8824C41.9266 17.6378 40.0323 14.2525 36.4541 13.1124C36.2085 13.0247 35.9454 13.165 35.8577 13.4106C35.77 13.6562 35.9103 13.9193 36.1559 14.007C39.4008 15.0419 41.0145 18.0237 41.0145 22.8824C41.0145 28.162 41.1724 31.3718 44.4524 35.9148C45.5049 37.3706 46.9081 38.5458 48.4692 39.3351C48.3113 39.9666 48.1008 40.598 47.8377 41.247C46.0135 45.6672 43.9788 47.0879 39.4535 47.0879C33.9283 47.0879 30.964 42.0012 30.315 38.5809C30.1571 37.7214 30.0168 36.5638 29.894 35.3359C29.666 33.3364 29.4204 31.0737 28.9468 29.6003C27.9997 26.5833 25.4563 25.759 22.9832 24.9696C22.6674 24.8644 22.3517 24.7592 22.036 24.6539C22.7551 23.2332 23.7725 21.9001 24.8249 20.5495C25.1932 20.0759 25.5616 19.6023 25.9299 19.1112C27.4384 17.0765 28.1926 15.1646 28.1751 13.4632C28.1751 13.2001 27.912 12.9546 27.7015 13.0072C27.4384 13.0072 27.2279 13.2177 27.2454 13.4808C27.263 14.9892 26.5789 16.6906 25.1932 18.5674C24.8424 19.041 24.4741 19.5146 24.1057 19.9882C23.0182 21.3739 21.9483 22.7946 21.1765 24.3557C20.4749 24.0926 19.8084 23.7769 19.1769 23.3735L18.984 23.2507C17.8614 22.5666 14.4235 20.4618 15.3005 13.6386C15.3356 13.3755 15.1427 13.1475 14.8971 13.1124C14.6515 13.0773 14.406 13.2703 14.3709 13.5158C13.7394 18.4447 15.1251 22.0053 18.5104 24.0575L18.6858 24.1628C19.3699 24.6013 20.089 24.9346 20.8082 25.2152C20.4047 26.2325 20.1592 27.32 20.1592 28.5128C20.1592 29.0565 20.1943 29.6003 20.2293 30.1616C20.2995 31.0737 20.3521 31.9156 20.2469 32.7751C19.9136 35.7744 17.7737 39.0369 14.3358 39.4754C11.1259 39.8964 7.44249 38.5283 5.60076 36.248C3.0925 33.1259 2.07517 29.7932 2.39089 25.7414C2.44352 25.145 2.49613 24.5662 2.54876 23.9874C2.88202 20.4969 3.19775 17.2168 1.60158 13.4632C1.49634 13.2177 1.2157 13.1124 0.987674 13.2177C0.74211 13.3229 0.636868 13.6035 0.74211 13.8316C2.23303 17.3747 1.95239 20.3916 1.61912 23.8997C1.5665 24.4785 1.51388 25.0749 1.46126 25.6713C1.11046 29.9862 2.19795 33.5293 4.86407 36.8444C6.65318 39.072 9.98583 40.4928 13.1782 40.4928C13.6167 40.4928 14.0376 40.4752 14.4586 40.4051C18.3876 39.8964 20.8257 36.2305 21.194 32.8628C21.2993 31.9156 21.2291 30.986 21.1765 30.0739C21.1414 29.5477 21.1063 29.0214 21.1063 28.4952C21.1063 27.4253 21.3344 26.443 21.7027 25.5134C22.0535 25.6362 22.4043 25.7414 22.7376 25.8642C25.1757 26.6535 27.2805 27.3376 28.0874 29.8809C28.5259 31.2666 28.7714 33.4767 28.9995 35.4236C29.1398 36.669 29.2626 37.8442 29.438 38.7388C30.1396 42.4573 33.4021 48 39.5061 48C45.0313 48 47.0835 45.6496 48.7673 41.5803C49.0304 40.9488 49.2234 40.3349 49.3988 39.721C50.5389 40.1946 51.7492 40.4402 52.9419 40.4752C52.9945 40.4752 53.0647 40.4752 53.1173 40.4752C55.5028 40.4752 57.555 39.5281 58.9056 37.8091C60.9929 35.1255 61.1332 31.5122 60.8526 28.9513C60.6772 27.2674 60.4667 26.2501 60.2387 25.1801C60.0633 24.3206 59.8703 23.4436 59.6949 22.1457V22.1281C60.835 21.9352 61.9752 21.7773 63.0626 21.637C65.378 21.3388 67.36 21.0757 68.5527 20.4267C70.1664 19.5497 72.3941 18.3394 72.3765 13.5158C72.2888 13.3054 72.0783 13.0949 71.8152 13.0949ZM59.2564 25.4081C59.4844 26.4606 59.6949 27.4428 59.8528 29.0916C60.0983 31.4771 59.9931 34.8448 58.0988 37.2829C56.906 38.8089 55.0818 39.6333 52.8893 39.5807C51.7492 39.5631 50.6266 39.3 49.5391 38.844C49.8899 37.1075 49.9601 35.4412 50.0127 33.8275C50.1004 31.214 50.1706 28.7408 51.5913 26.2852C52.9068 24.0225 55.7133 22.9701 58.6951 22.3561C58.8881 23.6541 59.0635 24.5487 59.2564 25.4081Z" fill="#1E817F"/>
<path d="M14.7912 9.34056C15.2648 9.34056 15.6507 8.95467 15.6507 8.48108V1.09663C15.6507 0.623043 15.2648 0.237158 14.7912 0.237158C14.3177 0.237158 13.9318 0.623043 13.9318 1.09663V8.48108C13.9142 8.95467 14.3001 9.34056 14.7912 9.34056Z" fill="#1E817F"/>
<path d="M25.3682 3.55301C24.4911 4.21954 23.4738 4.97377 22.7547 5.6403C21.7198 6.58747 21.7198 7.37678 21.8952 7.88545C22.1408 8.58706 22.8774 9.06064 23.8422 9.13081C24.649 9.18342 25.4032 9.20096 26.1575 9.20096C26.8942 9.20096 27.6308 9.18342 28.4377 9.16588C28.9113 9.14834 29.2972 8.74492 29.2796 8.27133C29.2621 7.79775 28.8762 7.4294 28.4202 7.4294H28.4026C26.824 7.48202 25.4909 7.49956 23.9825 7.39432C23.8071 7.37678 23.6668 7.3417 23.5966 7.30662C23.6492 7.23646 23.7369 7.09614 23.9474 6.90319C24.5964 6.30683 25.6137 5.53506 26.4206 4.92115C27.2625 4.2897 27.7361 3.92135 27.9992 3.65825C28.6131 3.0268 28.8411 2.20241 28.578 1.5008C28.3325 0.869353 27.7536 0.448387 26.9468 0.395766C26.1925 0.325605 24.9998 0.378227 23.9299 0.413307C23.544 0.430848 23.1756 0.430847 22.9125 0.448387C22.4389 0.448387 22.053 0.851813 22.053 1.3254C22.053 1.79899 22.4389 2.18487 22.9125 2.18487C22.9125 2.18487 22.9125 2.18487 22.9301 2.18487C23.2107 2.18487 23.579 2.16733 23.9825 2.14979C24.9472 2.11471 26.1399 2.07963 26.8065 2.13225C26.8766 2.13225 26.9292 2.14979 26.9468 2.14979C26.9292 2.20241 26.8942 2.32519 26.7538 2.48305C26.5784 2.64092 25.9645 3.09696 25.3682 3.55301Z" fill="#1E817F"/>
<path d="M39.2596 9.18363C39.4876 9.18363 39.7157 9.16609 39.9437 9.11346C40.8207 8.93806 41.61 8.44694 42.259 7.6927C43.8727 5.78082 43.7675 3.13224 42.0134 1.36067C41.6802 1.0274 40.4173 -0.0600915 38.5229 0.536277C38.4001 0.571358 35.4709 1.58869 35.4885 5.43001C35.4885 6.49997 35.8743 7.44714 36.576 8.13121C37.2425 8.79774 38.2598 9.18363 39.2596 9.18363ZM37.2074 5.41247C37.1899 2.86913 38.979 2.2026 39.0316 2.18506C39.2421 2.1149 39.4175 2.09736 39.5929 2.09736C40.2068 2.09736 40.6102 2.43062 40.7856 2.58849C41.9082 3.7286 41.9784 5.35985 40.9435 6.58767C40.6804 6.90339 40.2243 7.30682 39.6104 7.4296C38.9088 7.56992 38.1546 7.27174 37.7687 6.90339C37.4003 6.53505 37.2074 6.04392 37.2074 5.41247C37.2074 5.43001 37.2074 5.43001 37.2074 5.41247Z" fill="#1E817F"/>
<path d="M49.6256 9.16596C49.6607 9.16596 49.6958 9.16596 49.7308 9.16596C50.1694 9.16596 50.5377 8.8327 50.5903 8.39419L50.6079 8.21879C50.7657 6.85065 51.2218 2.76377 51.9585 2.14986C52.0637 2.2551 52.2742 2.55328 52.5724 3.36014L52.6601 3.6057C52.9056 4.32485 53.3617 5.64037 54.5369 5.53513C55.6945 5.42989 56.0278 4.18453 56.2558 3.37768C56.326 3.09703 56.4137 2.81639 56.4839 2.64099C56.5189 2.55329 56.6417 2.30772 56.7294 2.1674C57.1855 2.58837 57.9397 4.67566 58.2905 8.37665C58.3256 8.85024 58.7465 9.1835 59.2377 9.14842C59.7113 9.0958 60.0621 8.67483 60.0094 8.20125C59.5183 3.00933 58.3957 0.360754 56.6768 0.360754C56.4663 0.360754 56.2734 0.413375 56.0804 0.501077C55.4314 0.799261 55.1157 1.46579 54.9228 1.86921C54.7649 2.18494 54.6772 2.55329 54.572 2.90409C54.5369 3.06195 54.4843 3.25489 54.4141 3.44784C54.3615 3.30751 54.3089 3.14965 54.2738 3.06195L54.1685 2.76377C53.9054 2.04462 53.2915 0.395834 51.9585 0.395834C49.8887 0.395834 49.345 3.71094 48.8714 8.02584L48.8538 8.20125C48.8188 8.69237 49.152 9.11334 49.6256 9.16596Z" fill="#1E817F"/>
<path d="M0.93445 9.28852C1.40804 9.28852 1.79392 8.8851 1.79392 8.41151L1.72376 3.11435C1.72376 2.64077 1.72376 2.18472 1.9167 1.95669C2.09211 1.74621 2.51307 1.64097 2.89896 1.74621C3.61811 1.92161 4.16186 2.69339 4.05662 3.37746C3.98645 3.88612 3.58303 4.23693 3.24976 4.42987C2.35521 4.99116 2.47799 5.69277 2.67094 6.23652C3.47779 8.41151 5.72294 9.28852 6.65257 9.55163C6.74027 9.56917 6.81043 9.58671 6.89814 9.58671C7.26648 9.58671 7.61729 9.34114 7.72253 8.9728C7.86285 8.51675 7.59974 8.04317 7.1437 7.90284C6.63503 7.74498 4.95117 7.16615 4.3548 5.78047C5.14411 5.23672 5.63524 4.48249 5.75802 3.64056C6.00358 2.06194 4.88101 0.465772 3.28484 0.0798868C2.23243 -0.165677 1.14493 0.167588 0.566105 0.904278C-0.0127238 1.64097 -0.0127246 2.55306 0.00481566 3.16697L0.0749769 8.46413C0.0574367 8.90264 0.443323 9.28852 0.93445 9.28852C0.916909 9.28852 0.93445 9.28852 0.93445 9.28852Z" fill="#1E817F"/>
<path d="M72.5342 3.28984C71.8852 1.44811 70.8152 0.413239 69.5348 0.395699C68.1316 0.413239 67.009 1.51828 66.4126 3.48279C65.939 5.02633 65.6935 6.71019 65.711 8.30636C65.711 8.77995 66.0969 9.16583 66.5705 9.16583C67.0441 9.16583 67.43 8.77994 67.43 8.28882C67.4124 6.85052 67.6404 5.37713 68.0614 3.97391C68.342 3.02674 68.9384 2.13218 69.4997 2.0971C70.0785 2.11464 70.6047 3.0092 70.9029 3.85113C70.938 3.93883 70.9555 4.00899 70.9731 4.07915H69.5874C69.1138 4.07915 68.7279 4.46504 68.7279 4.93863C68.7279 5.41221 69.1138 5.7981 69.5874 5.7981H71.4817C71.6571 6.56987 71.7624 7.35918 71.7624 8.28882C71.7624 8.7624 72.1483 9.14829 72.6219 9.14829C73.0954 9.14829 73.4813 8.7624 73.4813 8.27128C73.4813 6.34185 73.113 4.92109 72.5342 3.28984Z" fill="#1E817F"/>
<path d="M57.1342 42.1413C56.5203 42.3343 55.3626 43.106 55.3801 44.7723C55.3801 45.3512 55.6082 45.8598 56.0116 46.2457C56.3975 46.5965 56.9939 46.807 57.5551 46.807C57.6779 46.807 57.8183 46.7895 57.941 46.7719C58.4322 46.6842 58.8882 46.4211 59.2741 46.0177C59.7301 45.5266 59.9757 44.8951 59.9582 44.2812C59.9406 43.6498 59.6424 43.0534 59.1338 42.5798C58.9233 42.4044 58.2217 41.8431 57.1342 42.1413ZM58.5725 45.3687C58.4146 45.5441 58.134 45.7721 57.7656 45.8248C57.3271 45.8949 56.8711 45.7371 56.6431 45.5266C56.4326 45.3336 56.3273 45.0705 56.3098 44.7548C56.2922 43.4217 57.292 43.0709 57.3973 43.0359C57.9761 42.878 58.3445 43.1411 58.4848 43.2639C58.8005 43.5621 58.9934 43.9129 58.9934 44.2988C59.0285 44.6846 58.8707 45.053 58.5725 45.3687Z" fill="#1E817F"/>
<path d="M62.9038 38.5629C62.6407 38.5279 61.7286 38.4928 61.0445 39.3698C60.6587 39.8785 60.1675 41.194 61.1498 42.527C61.5006 43.0006 61.9742 43.2813 62.5179 43.3339C62.5881 43.3339 62.6407 43.3514 62.7109 43.3514C63.3072 43.3514 63.9562 43.0708 64.3772 42.6323C64.8157 42.1762 64.9736 41.6325 65.0262 41.2466C65.1139 40.5801 64.9385 39.9311 64.5526 39.44C64.1843 38.9664 63.5879 38.6506 62.9038 38.5629ZM63.7107 42.0008C63.3949 42.3166 62.9214 42.4569 62.6232 42.4218C62.3425 42.3867 62.097 42.2464 61.904 41.9833C61.1147 40.9133 61.7111 40.0363 61.7812 39.9662C62.1496 39.4926 62.6232 39.4926 62.7986 39.5101C63.2371 39.5627 63.5879 39.7557 63.8159 40.0539C64.0439 40.3521 64.1492 40.7379 64.0965 41.1589C64.079 41.3869 63.9738 41.7202 63.7107 42.0008Z" fill="#1E817F"/>
<path d="M53.0643 46.3864C52.9415 46.5267 52.5907 46.6495 52.2224 46.6319C51.9943 46.6144 51.6611 46.5442 51.433 46.2461C51.2226 46.0005 51.1524 45.6146 51.1875 45.1059C51.2226 44.6148 51.3278 44.2815 51.5207 44.0711C51.6961 43.8781 52.3627 43.5975 52.8012 43.9658C52.9941 44.1412 53.2923 44.1061 53.4677 43.9132C53.6431 43.7203 53.608 43.4221 53.4151 43.2467C52.5732 42.5275 51.3278 42.8783 50.8191 43.4572C50.3806 43.9483 50.2929 44.5622 50.2578 45.0533C50.2052 45.8075 50.3631 46.4039 50.7139 46.8424C51.0647 47.2809 51.5909 47.544 52.2048 47.5791C52.2399 47.5791 52.275 47.5791 52.3101 47.5791C52.8713 47.5791 53.4326 47.3686 53.7659 47.0354C53.9413 46.8424 53.9413 46.5442 53.7484 46.3688C53.5554 46.1934 53.2572 46.1934 53.0643 46.3864Z" fill="#1E817F"/>
<path d="M67.2192 37.4407C66.5527 37.2477 65.4827 36.739 64.7285 36.3181C64.5356 36.2128 64.3602 36.1076 64.2374 35.9497C64.1672 35.862 64.1146 35.7042 64.1497 35.5989C64.2198 35.3884 64.5706 34.9324 65.0092 34.8798C65.4301 34.8272 65.6055 34.9675 65.7634 35.2657C65.8336 35.3884 65.8686 35.7042 65.7985 36.1427C65.7634 36.4058 65.9388 36.6338 66.2019 36.6689C66.465 36.704 66.693 36.5286 66.7281 36.2655C66.7807 35.827 66.8158 35.2306 66.5702 34.8096C66.2019 34.1256 65.6581 33.8449 64.8688 33.9326C63.9918 34.0379 63.3955 34.8096 63.2376 35.2657C63.0973 35.6691 63.185 36.1427 63.4656 36.511C63.6936 36.8092 63.9918 36.9846 64.2549 37.1249C64.9916 37.5284 66.1493 38.0896 66.9386 38.3352C66.9737 38.3527 67.0263 38.3527 67.0789 38.3527C67.2894 38.3527 67.4648 38.2124 67.535 38.0195C67.6051 37.7915 67.4648 37.5284 67.2192 37.4407Z" fill="#1E817F"/>
</svg>
